<?xml version="1.0" encoding="UTF-8" standalone="no"?>
<svg
   xmlns:dc="http://purl.org/dc/elements/1.1/"
   xmlns:cc="http://creativecommons.org/ns#"
   xmlns:rdf="http://www.w3.org/1999/02/22-rdf-syntax-ns#"
   xmlns:svg="http://www.w3.org/2000/svg"
   xmlns="http://www.w3.org/2000/svg"
   id="Capa_1"
   enable-background="new 0 0 508 508"
   height="512"
   viewBox="0 0 508 508"
   width="512"
   version="1.1">
  <metadata
     id="metadata23">
    <rdf:RDF>
      <cc:Work
         rdf:about="">
        <dc:format>image/svg+xml</dc:format>
        <dc:type
           rdf:resource="http://purl.org/dc/dcmitype/StillImage" />
        <dc:title></dc:title>
      </cc:Work>
    </rdf:RDF>
  </metadata>
  <defs
     id="defs21" />
  <g
     id="g16">
    <path
       d="m492.125 201.083h-137.583c-8.763 0-15.875 7.112-15.875 15.875s7.112 15.875 15.875 15.875h137.583c8.763 0 15.875-7.112 15.875-15.875s-7.112-15.875-15.875-15.875z"
       id="path2" />
    <path
       d="m492.125 264.583h-137.583c-8.763 0-15.875 7.112-15.875 15.875s7.112 15.875 15.875 15.875h137.583c8.763 0 15.875-7.112 15.875-15.875s-7.112-15.875-15.875-15.875z"
       id="path4" />
    <path
       d="m492.125 328.083h-137.583c-8.763 0-15.875 7.112-15.875 15.875s7.112 15.875 15.875 15.875h137.583c8.763 0 15.875-7.112 15.875-15.875s-7.112-15.875-15.875-15.875z"
       id="path6" />
    <path
       d="m492.125 391.583h-137.583c-8.763 0-15.875 7.112-15.875 15.875s7.112 15.875 15.875 15.875h137.583c8.763 0 15.875-7.112 15.875-15.875s-7.112-15.875-15.875-15.875z"
       id="path8" />
    <path
       d="m492.125 455.083h-137.583c-8.763 0-15.875 7.112-15.875 15.875s7.112 15.875 15.875 15.875h137.583c8.763 0 15.875-7.112 15.875-15.875s-7.112-15.875-15.875-15.875z"
       id="path10" />
    <path
       d="m259.292 201.083h-222.25c-20.32 0-37.042 16.722-37.042 37.042v211.667c0 20.32 16.722 37.042 37.042 37.042h222.25c20.32 0 37.042-16.722 37.042-37.042v-211.667c-.001-20.32-16.722-37.042-37.042-37.042zm-111.125 74.084c17.568 0 31.75 14.182 31.75 31.75s-14.182 31.75-31.75 31.75-31.75-14.182-31.75-31.75 14.181-31.75 31.75-31.75zm63.5 132.291c0 8.678-7.197 15.875-15.875 15.875h-95.25c-8.678 0-15.875-7.197-15.875-15.875v-7.832c0-22.013 19.897-39.793 44.45-39.793h38.1c24.553 0 44.45 17.78 44.45 39.793z"
       id="path12" />
    <path
       d="m470.958 21.167h-433.916c-20.426 0-37.042 16.616-37.042 37.041v52.917c0 20.426 16.616 37.042 37.042 37.042h433.917c20.426 0 37.042-16.616 37.042-37.042v-52.917c-.001-20.425-16.617-37.041-37.043-37.041z"
       id="path14" />
  </g>
  <path
     style="fill:#ffffff;stroke:#6c51c4;stroke-width:3.57209;stroke-linejoin:round"
     d="M 24.545888,146.36735 C 17.354931,143.82253 7.3182046,134.24246 3.8854612,126.64695 1.107379,120.49999 1.0494626,119.66667 1.0494626,85.841613 c 0,-31.109244 0.2248161,-35.11314 2.2692137,-40.413887 C 6.1979171,37.962385 13.532666,29.972765 21.243521,25.902493 l 6.00129,-3.167857 226.183649,-0.309847 c 258.95563,-0.354741 234.31093,-1.43659 246.49357,10.820533 11.17558,11.243899 11.56195,13.140449 11.11256,54.546576 -0.35447,32.660022 -0.4585,33.957432 -3.16327,39.450132 -4.02871,8.18129 -12.07438,15.72711 -19.88467,18.64931 -6.57013,2.45821 -6.91898,2.46176 -232.47022,2.3679 -198.253085,-0.0825 -226.511789,-0.31397 -230.970542,-1.89189 z"
     id="path848"
     transform="scale(0.9921875)" />
  <path
     style="fill:#ffffff;stroke:#6c51c4;stroke-width:3.57209;stroke-linejoin:round"
     d="M 25.854618,487.89108 C 18.321141,485.27341 12.142324,480.68828 7.4857042,474.26001 0.15378803,464.13859 0.36353847,468.17483 0.7224881,344.11518 L 1.0494626,231.10673 3.6333245,225.51479 C 6.9353101,218.3687 14.944639,210.35937 22.513074,206.63504 l 5.922435,-2.91436 H 149.29132 270.14714 l 6.73999,3.30988 c 7.76163,3.81159 14.44832,10.67231 18.10114,18.57228 2.5441,5.50213 2.54491,5.54077 2.54491,121.00156 0,115.46079 -8.1e-4,115.49944 -2.54491,121.00156 -3.65282,7.89997 -10.33951,14.7607 -18.10114,18.57229 l -6.73999,3.30987 -119.06977,0.27047 C 39.197859,490.01272 31.636043,489.89995 25.854618,487.89108 Z M 206.08933,424.6433 c 6.34331,-3.86773 7.83571,-8.26219 7.25971,-21.37671 -0.40975,-9.3295 -1.06695,-12.51239 -3.59624,-17.41697 -3.91976,-7.60084 -12.27292,-15.3354 -20.9599,-19.40771 l -6.75739,-3.16774 h -32.74419 -32.74418 l -6.75739,3.16774 c -8.68699,4.07231 -17.040148,11.80687 -20.959903,19.40771 -2.52929,4.90458 -3.186491,8.08747 -3.596242,17.41697 -0.575989,13.11452 0.916405,17.50898 7.259711,21.37671 3.629973,2.21333 6.341579,2.32429 56.798004,2.32429 50.45644,0 53.16804,-0.11097 56.79801,-2.32429 z m -44.06742,-85.33999 c 6.03956,-2.14557 13.33128,-8.96869 16.42911,-15.37333 3.25388,-6.72725 3.81962,-19.45862 1.17267,-26.38956 -2.58362,-6.76511 -8.95686,-13.97689 -15.36743,-17.38935 -6.93661,-3.69249 -22.99326,-3.69249 -29.92988,0 -6.41057,3.41246 -12.7838,10.62424 -15.36743,17.38935 -2.58394,6.76598 -2.08941,19.64859 0.999,26.02358 2.48787,5.13536 9.47204,12.41683 14.33411,14.94428 7.36528,3.82867 18.30727,4.14239 27.72985,0.79503 z"
     id="path850"
     transform="scale(0.9921875)" />
  <path
     style="fill:#ffffff;stroke:#6c51c4;stroke-width:3.57209;stroke-linejoin:round"
     d="m 350.84035,232.31816 c -7.89836,-3.43364 -10.95099,-14.10237 -6.24409,-21.82262 4.56677,-7.49038 3.22309,-7.37021 82.40563,-7.37021 67.26009,0 72.05267,0.13747 75.85322,2.17572 7.78083,4.17291 10.52739,13.98048 5.99639,21.41221 -4.57014,7.49592 -3.21,7.37502 -82.38705,7.32361 -58.93174,-0.0383 -72.46615,-0.34586 -75.6241,-1.71871 z"
     id="path852"
     transform="scale(0.9921875)" />
  <path
     style="fill:#ffffff;stroke:#6c51c4;stroke-width:3.57209;stroke-linejoin:round"
     d="m 350.75769,296.18632 c -8.11317,-4.3261 -10.86015,-13.68659 -6.24015,-21.26364 4.7302,-7.7578 1.896,-7.50013 82.44489,-7.49522 70.29169,0.004 73.13024,0.0904 76.80132,2.32874 10.40945,6.34701 9.67664,20.86664 -1.32184,26.19092 -4.89657,2.37039 -6.89389,2.43272 -76.39164,2.38412 -65.77189,-0.046 -71.67145,-0.21407 -75.29258,-2.14492 z"
     id="path854"
     transform="scale(0.9921875)" />
  <path
     style="fill:#ffffff;stroke:#6c51c4;stroke-width:3.57209;stroke-linejoin:round"
     d="m 354.23262,361.50696 c -2.21437,-0.535 -5.69717,-2.64376 -7.73953,-4.68612 -3.26651,-3.26651 -3.7134,-4.50977 -3.7134,-10.33083 0,-6.12092 0.33371,-6.92325 4.44764,-10.69338 l 4.44763,-4.07595 h 74.87086 c 74.12313,0 74.90244,0.0248 78.03197,2.48653 6.67749,5.25252 8.41168,13.12387 4.35662,19.77436 -5.19711,8.52351 -0.93152,8.07971 -79.77546,8.30001 -38.9951,0.10896 -72.71195,-0.23962 -74.92633,-0.77462 z"
     id="path856"
     transform="scale(0.9921875)" />
  <path
     style="fill:#ffffff;stroke:#6c51c4;stroke-width:3.57209;stroke-linejoin:round"
     d="m 349.68401,423.45261 c -10.56782,-6.44358 -9.75584,-20.82831 1.48282,-26.26885 4.67992,-2.26551 7.54226,-2.35585 74.44461,-2.34946 42.15304,0.004 71.24687,0.47037 73.81269,1.18316 13.0582,3.62758 15.72585,20.49255 4.33962,27.43515 -3.67165,2.23873 -6.50736,2.32429 -77.03987,2.32429 -70.53251,0 -73.36822,-0.0856 -77.03987,-2.32429 z"
     id="path858"
     transform="scale(0.9921875)" />
  <path
     style="fill:#ffffff;stroke:#6c51c4;stroke-width:3.57209;stroke-linejoin:round"
     d="m 350.84035,488.31816 c -7.89836,-3.43364 -10.95099,-14.10237 -6.24409,-21.82262 4.56677,-7.49038 3.22309,-7.37021 82.40563,-7.37021 67.26009,0 72.05267,0.13747 75.85322,2.17572 7.78083,4.17291 10.52739,13.98048 5.99639,21.41221 -4.57014,7.49592 -3.21,7.37502 -82.38705,7.32361 -58.93174,-0.0383 -72.46615,-0.34586 -75.6241,-1.71871 z"
     id="path860"
     transform="scale(0.9921875)" />
</svg>
