<?xml version="1.0" encoding="UTF-8" standalone="no"?>
<svg
   xmlns:dc="http://purl.org/dc/elements/1.1/"
   xmlns:cc="http://creativecommons.org/ns#"
   xmlns:rdf="http://www.w3.org/1999/02/22-rdf-syntax-ns#"
   xmlns:svg="http://www.w3.org/2000/svg"
   xmlns="http://www.w3.org/2000/svg"
   id="Capa_1"
   enable-background="new 0 0 508 508"
   height="512"
   viewBox="0 0 508 508"
   width="512"
   version="1.1">
  <metadata
     id="metadata23">
    <rdf:RDF>
      <cc:Work
         rdf:about="">
        <dc:format>image/svg+xml</dc:format>
        <dc:type
           rdf:resource="http://purl.org/dc/dcmitype/StillImage" />
        <dc:title></dc:title>
      </cc:Work>
    </rdf:RDF>
  </metadata>
  <defs
     id="defs21">
    <filter
       style="color-interpolation-filters:sRGB"
       id="filter878"
       x="-2.9758689e-06"
       width="1.000006"
       y="-1.2402273e-05"
       height="1.0000248">
      <feGaussianBlur
         stdDeviation="0.00062556989"
         id="feGaussianBlur880" />
    </filter>
  </defs>
  <g
     id="g16">
    <path
       d="m492.125 201.083h-137.583c-8.763 0-15.875 7.112-15.875 15.875s7.112 15.875 15.875 15.875h137.583c8.763 0 15.875-7.112 15.875-15.875s-7.112-15.875-15.875-15.875z"
       id="path2" />
    <path
       d="m492.125 264.583h-137.583c-8.763 0-15.875 7.112-15.875 15.875s7.112 15.875 15.875 15.875h137.583c8.763 0 15.875-7.112 15.875-15.875s-7.112-15.875-15.875-15.875z"
       id="path4" />
    <path
       d="m492.125 328.083h-137.583c-8.763 0-15.875 7.112-15.875 15.875s7.112 15.875 15.875 15.875h137.583c8.763 0 15.875-7.112 15.875-15.875s-7.112-15.875-15.875-15.875z"
       id="path6" />
    <path
       d="m492.125 391.583h-137.583c-8.763 0-15.875 7.112-15.875 15.875s7.112 15.875 15.875 15.875h137.583c8.763 0 15.875-7.112 15.875-15.875s-7.112-15.875-15.875-15.875z"
       id="path8" />
    <path
       d="m492.125 455.083h-137.583c-8.763 0-15.875 7.112-15.875 15.875s7.112 15.875 15.875 15.875h137.583c8.763 0 15.875-7.112 15.875-15.875s-7.112-15.875-15.875-15.875z"
       id="path10" />
    <path
       d="m259.292 201.083h-222.25c-20.32 0-37.042 16.722-37.042 37.042v211.667c0 20.32 16.722 37.042 37.042 37.042h222.25c20.32 0 37.042-16.722 37.042-37.042v-211.667c-.001-20.32-16.722-37.042-37.042-37.042zm-111.125 74.084c17.568 0 31.75 14.182 31.75 31.75s-14.182 31.75-31.75 31.75-31.75-14.182-31.75-31.75 14.181-31.75 31.75-31.75zm63.5 132.291c0 8.678-7.197 15.875-15.875 15.875h-95.25c-8.678 0-15.875-7.197-15.875-15.875v-7.832c0-22.013 19.897-39.793 44.45-39.793h38.1c24.553 0 44.45 17.78 44.45 39.793z"
       id="path12" />
    <path
       d="m470.958 21.167h-433.916c-20.426 0-37.042 16.616-37.042 37.041v52.917c0 20.426 16.616 37.042 37.042 37.042h433.917c20.426 0 37.042-16.616 37.042-37.042v-52.917c-.001-20.425-16.617-37.041-37.043-37.041z"
       id="path14" />
  </g>
  <path
     style="fill:#ffffff;stroke:#6c51c4;stroke-width:3.57209;stroke-linejoin:round"
     d="M 24.545888,146.36735 C 17.354931,143.82253 7.3182046,134.24246 3.8854612,126.64695 1.107379,120.49999 1.0494626,119.66667 1.0494626,85.841613 c 0,-31.109244 0.2248161,-35.11314 2.2692137,-40.413887 C 6.1979171,37.962385 13.532666,29.972765 21.243521,25.902493 l 6.00129,-3.167857 226.183649,-0.309847 c 258.95563,-0.354741 234.31093,-1.43659 246.49357,10.820533 11.17558,11.243899 11.56195,13.140449 11.11256,54.546576 -0.35447,32.660022 -0.4585,33.957432 -3.16327,39.450132 -4.02871,8.18129 -12.07438,15.72711 -19.88467,18.64931 -6.57013,2.45821 -6.91898,2.46176 -232.47022,2.3679 -198.253085,-0.0825 -226.511789,-0.31397 -230.970542,-1.89189 z"
     id="path848"
     transform="scale(0.9921875)" />
  <path
     style="fill:#ffffff;stroke:#6c51c4;stroke-width:3.57209;stroke-linejoin:round"
     d="M 25.854618,487.89108 C 18.321141,485.27341 12.142324,480.68828 7.4857042,474.26001 0.15378803,464.13859 0.36353847,468.17483 0.7224881,344.11518 L 1.0494626,231.10673 3.6333245,225.51479 C 6.9353101,218.3687 14.944639,210.35937 22.513074,206.63504 l 5.922435,-2.91436 H 149.29132 270.14714 l 6.73999,3.30988 c 7.76163,3.81159 14.44832,10.67231 18.10114,18.57228 2.5441,5.50213 2.54491,5.54077 2.54491,121.00156 0,115.46079 -8.1e-4,115.49944 -2.54491,121.00156 -3.65282,7.89997 -10.33951,14.7607 -18.10114,18.57229 l -6.73999,3.30987 -119.06977,0.27047 C 39.197859,490.01272 31.636043,489.89995 25.854618,487.89108 Z M 206.08933,424.6433 c 6.34331,-3.86773 7.83571,-8.26219 7.25971,-21.37671 -0.40975,-9.3295 -1.06695,-12.51239 -3.59624,-17.41697 -3.91976,-7.60084 -12.27292,-15.3354 -20.9599,-19.40771 l -6.75739,-3.16774 h -32.74419 -32.74418 l -6.75739,3.16774 c -8.68699,4.07231 -17.040148,11.80687 -20.959903,19.40771 -2.52929,4.90458 -3.186491,8.08747 -3.596242,17.41697 -0.575989,13.11452 0.916405,17.50898 7.259711,21.37671 3.629973,2.21333 6.341579,2.32429 56.798004,2.32429 50.45644,0 53.16804,-0.11097 56.79801,-2.32429 z m -44.06742,-85.33999 c 6.03956,-2.14557 13.33128,-8.96869 16.42911,-15.37333 3.25388,-6.72725 3.81962,-19.45862 1.17267,-26.38956 -2.58362,-6.76511 -8.95686,-13.97689 -15.36743,-17.38935 -6.93661,-3.69249 -22.99326,-3.69249 -29.92988,0 -6.41057,3.41246 -12.7838,10.62424 -15.36743,17.38935 -2.58394,6.76598 -2.08941,19.64859 0.999,26.02358 2.48787,5.13536 9.47204,12.41683 14.33411,14.94428 7.36528,3.82867 18.30727,4.14239 27.72985,0.79503 z"
     id="path850"
     transform="scale(0.9921875)" />
  <path
     style="fill:#ffffff;stroke:#6c51c4;stroke-width:3.57209;stroke-linejoin:round"
     d="m 350.84035,232.31816 c -7.89836,-3.43364 -10.95099,-14.10237 -6.24409,-21.82262 4.56677,-7.49038 3.22309,-7.37021 82.40563,-7.37021 67.26009,0 72.05267,0.13747 75.85322,2.17572 7.78083,4.17291 10.52739,13.98048 5.99639,21.41221 -4.57014,7.49592 -3.21,7.37502 -82.38705,7.32361 -58.93174,-0.0383 -72.46615,-0.34586 -75.6241,-1.71871 z"
     id="path852"
     transform="scale(0.9921875)" />
  <path
     style="fill:#ffffff;stroke:#6c51c4;stroke-width:3.57209;stroke-linejoin:round"
     d="m 350.75769,296.18632 c -8.11317,-4.3261 -10.86015,-13.68659 -6.24015,-21.26364 4.7302,-7.7578 1.896,-7.50013 82.44489,-7.49522 70.29169,0.004 73.13024,0.0904 76.80132,2.32874 10.40945,6.34701 9.67664,20.86664 -1.32184,26.19092 -4.89657,2.37039 -6.89389,2.43272 -76.39164,2.38412 -65.77189,-0.046 -71.67145,-0.21407 -75.29258,-2.14492 z"
     id="path854"
     transform="scale(0.9921875)" />
  <path
     style="fill:#ffffff;stroke:#6c51c4;stroke-width:3.57209;stroke-linejoin:round"
     d="m 354.23262,361.50696 c -2.21437,-0.535 -5.69717,-2.64376 -7.73953,-4.68612 -3.26651,-3.26651 -3.7134,-4.50977 -3.7134,-10.33083 0,-6.12092 0.33371,-6.92325 4.44764,-10.69338 l 4.44763,-4.07595 h 74.87086 c 74.12313,0 74.90244,0.0248 78.03197,2.48653 6.67749,5.25252 8.41168,13.12387 4.35662,19.77436 -5.19711,8.52351 -0.93152,8.07971 -79.77546,8.30001 -38.9951,0.10896 -72.71195,-0.23962 -74.92633,-0.77462 z"
     id="path856"
     transform="scale(0.9921875)" />
  <path
     style="fill:#ffffff;stroke:#6c51c4;stroke-width:3.57209;stroke-linejoin:round"
     d="m 349.68401,423.45261 c -10.56782,-6.44358 -9.75584,-20.82831 1.48282,-26.26885 4.67992,-2.26551 7.54226,-2.35585 74.44461,-2.34946 42.15304,0.004 71.24687,0.47037 73.81269,1.18316 13.0582,3.62758 15.72585,20.49255 4.33962,27.43515 -3.67165,2.23873 -6.50736,2.32429 -77.03987,2.32429 -70.53251,0 -73.36822,-0.0856 -77.03987,-2.32429 z"
     id="path858"
     transform="scale(0.9921875)" />
  <path
     style="fill:#6c51c4;stroke:#6c51c4;stroke-width:3.57209;stroke-linejoin:round;fill-opacity:1"
     d="m 350.84035,488.31816 c -7.89836,-3.43364 -10.95099,-14.10237 -6.24409,-21.82262 4.56677,-7.49038 3.22309,-7.37021 82.40563,-7.37021 67.26009,0 72.05267,0.13747 75.85322,2.17572 7.78083,4.17291 10.52739,13.98048 5.99639,21.41221 -4.57014,7.49592 -3.21,7.37502 -82.38705,7.32361 -58.93174,-0.0383 -72.46615,-0.34586 -75.6241,-1.71871 z"
     id="path860"
     transform="scale(0.9921875)" />
  <path
     style="fill:#6c51c4;fill-opacity:1;stroke:#6c51c4;stroke-width:3.57209;stroke-linejoin:round"
     d="M 33.038252,486.54227 C 24.140091,485.52628 16.448338,481.28787 10.821441,474.30004 3.1332224,464.75234 3.5531952,471.68048 3.1047755,347.00105 L 2.6950876,233.09072 5.6232068,227.31235 C 9.0081899,220.63241 18.183861,211.5995 25.242208,207.9986 c 4.860347,-2.47956 5.473167,-2.49187 124.049112,-2.49187 119.05349,0 119.16931,0.002 124.17767,2.52497 8.47126,4.26681 14.78617,10.21984 18.16327,17.1224 l 3.19148,6.52313 V 346.6044 461.53158 l -3.19148,6.52313 c -3.3771,6.90256 -9.69201,12.85558 -18.16327,17.1224 -5.01088,2.52388 -5.06182,2.5249 -119.06976,2.36206 -62.731213,-0.0897 -117.34365,-0.53822 -121.360978,-0.9969 z M 207.44219,426.59428 c 2.62482,-1.43209 4.80275,-4.04152 6.41473,-7.68568 2.11927,-4.79097 2.34335,-6.998 1.70193,-16.76284 -0.88213,-13.42905 -3.47483,-19.63855 -11.59307,-27.76523 -3.0567,-3.05986 -8.82433,-7.21242 -12.81697,-9.2279 l -7.25935,-3.66451 h -34.59814 -34.59814 l -7.25934,3.66451 c -3.99264,2.01548 -9.760276,6.16804 -12.816968,9.2279 -8.118241,8.12668 -10.710951,14.33618 -11.593072,27.76523 -0.640813,9.75548 -0.416332,11.97417 1.694281,16.74555 2.474331,5.59364 5.189259,7.79373 11.587196,9.38987 1.964651,0.49014 26.880003,0.79896 55.367443,0.68626 47.61901,-0.18837 52.11579,-0.37973 55.76947,-2.37316 z m -41.99523,-86.23921 c 5.80013,-3.00357 13.12279,-10.82179 15.73801,-16.8031 1.21887,-2.7877 1.91886,-7.94401 1.96226,-14.45454 0.0554,-8.2999 -0.41487,-11.02549 -2.61317,-15.14829 -7.2498,-13.59662 -15.63949,-18.58815 -31.24274,-18.58815 -15.60324,0 -23.99294,4.99153 -31.24274,18.58815 -3.86606,7.25058 -3.8142,22.88224 0.10251,30.89875 3.19455,6.53843 12.53181,15.40949 18.24801,17.33691 6.45868,2.17776 23.36561,1.1128 29.04786,-1.82973 z"
     id="path862"
     transform="scale(0.9921875)" />
  <path
     style="fill:#6c51c4;fill-opacity:1;stroke:#6c51c4;stroke-width:3.57209;stroke-linejoin:round;filter:url(#filter878);image-rendering:optimizeSpeed"
     d="M 40.232904,144.86763 C 25.468918,144.22187 24.378481,144.00134 19.62041,140.69888 13.603282,136.52256 9.5389684,131.86797 6.2077807,125.3383 3.8761335,120.7679 3.7423834,118.59413 3.7766208,85.825997 3.8071491,56.607849 4.1165482,50.423327 5.7424157,46.532078 8.7749334,39.274241 13.276905,34.171996 21.122775,29.100965 l 7.253833,-4.688378 225.666662,0.452226 c 163.13669,0.326919 227.31631,0.828257 231.62015,1.809297 4.97515,1.134064 7.06866,2.552065 12.73966,8.629033 3.7324,3.99958 7.4831,9.237624 8.33489,11.6401 1.13512,3.201626 1.5487,13.589432 1.5487,38.89837 0,33.625267 -0.0718,34.675917 -2.73831,40.089007 -3.15923,6.41323 -11.50755,14.5653 -17.87313,17.45296 -4.05316,1.83865 -20.93689,1.99961 -218.12344,2.0794 -117.55163,0.0475 -220.745129,-0.22035 -229.318886,-0.59535 z"
     id="path864"
     transform="scale(0.9921875)"
     onmouseover="fill: white;" />
  <path
     style="fill:#6c51c4;fill-opacity:1;stroke:#6c51c4;stroke-width:3.57209;stroke-linejoin:round"
     d="m 356.93192,230.66221 c -6.95121,-0.89245 -9.11418,-2.3186 -11.21738,-7.39616 -2.01815,-4.87224 0.18601,-12.25573 4.50326,-15.08506 2.9318,-1.92137 8.74206,-2.07891 76.67204,-2.07891 h 73.49985 l 3.59297,3.44176 c 4.51048,4.32066 5.54284,8.78768 3.28163,14.19952 -3.17854,7.60733 -0.5567,7.34673 -75.77762,7.53202 -37.65581,0.0928 -71.20545,-0.18316 -74.55475,-0.61317 z"
     id="path866"
     transform="scale(0.9921875)" />
  <path
     style="fill:#6c51c4;fill-opacity:1;stroke:#6c51c4;stroke-width:3.57209;stroke-linejoin:round"
     d="m 355.94554,294.82226 c -5.7064,-1.09839 -11.38182,-6.90649 -11.37535,-11.64129 0.006,-4.66396 4.12825,-10.77589 7.99583,-11.85624 1.82124,-0.50874 35.72809,-0.92498 75.34856,-0.92498 78.23086,0 75.68303,-0.21626 79.27445,6.72878 3.96726,7.67184 -0.88555,15.92826 -10.44865,17.77703 -6.37127,1.23171 -134.35641,1.15599 -140.79484,-0.0833 z"
     id="path868"
     transform="scale(0.9921875)" />
  <path
     style="fill:#6c51c4;fill-opacity:1;stroke:#6c51c4;stroke-width:3.57209;stroke-linejoin:round"
     d="m 363.5199,359.49064 c -8.99921,-0.41462 -10.67975,-0.85632 -14.08992,-3.70325 -3.39371,-2.8332 -3.87199,-3.94685 -3.87199,-9.01576 0,-4.71061 0.61787,-6.42819 3.33129,-9.26039 l 3.33128,-3.47711 74.86229,0.33165 74.86228,0.33165 2.8646,3.33093 c 4.22032,4.90737 4.84395,8.87932 2.17444,13.84923 -4.18379,7.78908 -2.81482,7.63799 -71.33006,7.87219 -34.05395,0.1164 -66.51434,-2.1e-4 -72.13421,-0.25914 z"
     id="path870"
     transform="scale(0.9921875)" />
  <path
     style="fill:#6c51c4;fill-opacity:1;stroke:#6c51c4;stroke-width:3.57209;stroke-linejoin:round"
     d="m 357.06807,422.84222 c -0.65489,-0.23111 -2.68081,-0.74937 -4.50205,-1.15167 -3.91416,-0.86461 -7.98937,-6.87897 -7.99583,-11.80057 -0.007,-5.62678 6.49296,-11.09127 14.34762,-12.0613 3.56683,-0.44049 36.515,-0.62615 73.21817,-0.41258 74.01514,0.43068 70.79479,0.0732 75.06576,8.33238 1.61068,3.1147 1.70793,4.5334 0.5709,8.32848 -2.73435,9.12643 0.96954,8.70433 -78.61369,8.95879 -38.9951,0.12468 -71.436,0.0376 -72.09088,-0.19353 z"
     id="path872"
     transform="scale(0.9921875)" />
</svg>
