<?xml version="1.0" encoding="UTF-8" standalone="no"?>
<svg
   xmlns:dc="http://purl.org/dc/elements/1.1/"
   xmlns:cc="http://creativecommons.org/ns#"
   xmlns:rdf="http://www.w3.org/1999/02/22-rdf-syntax-ns#"
   xmlns:svg="http://www.w3.org/2000/svg"
   xmlns="http://www.w3.org/2000/svg"
   xmlns:sodipodi="http://sodipodi.sourceforge.net/DTD/sodipodi-0.dtd"
   xmlns:inkscape="http://www.inkscape.org/namespaces/inkscape"
   viewBox="0 0 24 24"
   version="1.1"
   id="svg37"
   sodipodi:docname="exit_icon.svg"
   inkscape:version="1.0.1 (3bc2e813f5, 2020-09-07)">
  <metadata
     id="metadata43">
    <rdf:RDF>
      <cc:Work
         rdf:about="">
        <dc:format>image/svg+xml</dc:format>
        <dc:type
           rdf:resource="http://purl.org/dc/dcmitype/StillImage" />
      </cc:Work>
    </rdf:RDF>
  </metadata>
  <defs
     id="defs41" />
  <sodipodi:namedview
     pagecolor="#ffffff"
     bordercolor="#666666"
     borderopacity="1"
     objecttolerance="10"
     gridtolerance="10"
     guidetolerance="10"
     inkscape:pageopacity="0"
     inkscape:pageshadow="2"
     inkscape:window-width="1248"
     inkscape:window-height="706"
     id="namedview39"
     showgrid="false"
     inkscape:zoom="21.875"
     inkscape:cx="12"
     inkscape:cy="12"
     inkscape:window-x="0"
     inkscape:window-y="0"
     inkscape:window-maximized="0"
     inkscape:current-layer="svg37" />
  <path
     d="M 1.8514286,11.954286 A 1.1885714,1.1645714 0 0 0 3.04,13.118857 h 9.021257 l -2.7337142,2.666869 a 1.1885714,1.1645714 0 0 0 0,1.653691 1.1885714,1.1645714 0 0 0 1.6877712,0 L 15.7696,12.781131 a 1.1885714,1.1645714 0 0 0 0.2496,-0.384308 1.1885714,1.1645714 0 0 0 0,-0.885074 1.1885714,1.1645714 0 0 0 -0.2496,-0.384309 L 11.015314,6.4691543 A 1.1934346,1.1693364 0 1 0 9.3275428,8.1228457 L 12.061257,10.789714 H 3.04 A 1.1885714,1.1645714 0 0 0 1.8514286,11.954286 Z M 17.302857,0.30857143 H 5.4171428 A 3.5657142,3.4937143 0 0 0 1.8514286,3.8022857 V 7.296 a 1.1885714,1.1645714 0 0 0 2.3771428,0 V 3.8022857 A 1.1885714,1.1645714 0 0 1 5.4171428,2.6377143 H 17.302857 a 1.1885714,1.1645714 0 0 1 1.188572,1.1645714 V 20.106286 a 1.1885714,1.1645714 0 0 1 -1.188572,1.164571 H 5.4171428 A 1.1885714,1.1645714 0 0 1 4.2285714,20.106286 v -3.493715 a 1.1885714,1.1645714 0 0 0 -2.3771428,0 v 3.493715 A 3.5657142,3.4937143 0 0 0 5.4171428,23.6 H 17.302857 a 3.5657142,3.4937143 0 0 0 3.565714,-3.493714 V 3.8022857 A 3.5657142,3.4937143 0 0 0 17.302857,0.30857143 Z"
     id="path35"
     style="stroke-width:1.17651" />
  <path
     style="fill:#ffffff;stroke-width:0.0457143"
     d="M 4.7577228,23.516469 C 3.3360156,23.234313 2.223912,22.142325 1.944655,20.754286 c -0.062379,-0.310051 -0.071594,-0.67534 -0.060545,-2.4 0.012207,-1.905329 0.018645,-2.045598 0.1015691,-2.212727 0.1924485,-0.387871 0.5518389,-0.624889 0.9985612,-0.658551 0.2277984,-0.01717 0.3049825,1.37e-4 0.5596593,0.125523 0.2827767,0.13921 0.4613572,0.32469 0.5969754,0.62004 0.02309,0.05029 0.052268,1.017143 0.064839,2.148572 0.021294,1.91647 0.028911,2.069345 0.1113936,2.235584 0.1128922,0.227529 0.3283503,0.442987 0.5558794,0.555879 0.1734449,0.08606 0.3525218,0.08892 6.395584,0.102044 4.596621,0.01 6.264532,-2.29e-4 6.39895,-0.03923 0.289774,-0.08405 0.540337,-0.285183 0.68849,-0.552653 l 0.135418,-0.24448 v -8.48 c 0,-8.2957663 -0.0019,-8.483877 -0.08854,-8.6584415 C 18.29,3.0683153 18.074542,2.8528573 17.847013,2.7399651 17.673568,2.6539076 17.494491,2.6510504 11.451429,2.6379219 6.8548078,2.6279357 5.186897,2.6381612 5.0524785,2.6771521 4.762705,2.761207 4.5121417,2.9623354 4.3639895,3.2298055 L 4.2285714,3.4742857 4.2057143,5.5314286 C 4.1845882,7.4327817 4.1762885,7.6017979 4.0961202,7.7632206 3.9035321,8.1510057 3.4576528,8.4330295 3.035873,8.4338391 2.7089079,8.4344654 2.2835912,8.2177623 2.1097135,7.9619493 1.8764933,7.6188302 1.8742857,7.5955291 1.8742857,5.4769655 c 0,-2.166325 0.020273,-2.3913217 0.2690785,-2.986404 C 2.3753703,1.9356604 2.8699697,1.3194336 3.3447175,0.99378235 3.6430615,0.78913454 4.0550379,0.59246299 4.4358968,0.4728692 L 4.7771429,0.36571429 H 11.36 17.942857 l 0.341246,0.10715491 c 1.317833,0.41381377 2.226982,1.3882217 2.489372,2.6680607 0.06431,0.3137 0.07224,1.2806426 0.07224,8.8133561 0,9.279558 0.01402,8.786634 -0.269078,9.463724 -0.232007,0.554901 -0.726606,1.171128 -1.201354,1.496779 -0.280813,0.192623 -0.694152,0.394103 -1.066711,0.519963 l -0.32,0.108105 -6.514285,0.0069 c -3.5886348,0.0038 -6.6051313,-0.01115 -6.7165632,-0.03327 z"
     id="path45" />
  <path
     style="fill:#ffffff;stroke-width:0.0457143"
     d="m 9.8156613,17.694299 c -0.3692608,-0.131737 -0.6454917,-0.412186 -0.763505,-0.775164 -0.077972,-0.23982 -0.032519,-0.630006 0.09911,-0.850794 0.058232,-0.09768 0.7333051,-0.7877 1.5001627,-1.533387 0.766857,-0.745688 1.401016,-1.37387 1.409243,-1.395961 0.0085,-0.02286 -2.000049,-0.04545 -4.6628576,-0.05244 L 2.72,13.074286 2.5371429,12.975435 C 2.151837,12.767141 1.8762937,12.34137 1.8762937,11.954286 c 0,-0.387084 0.2755433,-0.812856 0.6608492,-1.021149 L 2.72,10.834286 7.3978144,10.822015 c 2.6628086,-0.007 4.6713716,-0.02957 4.6628576,-0.05244 -0.0082,-0.02209 -0.642386,-0.650274 -1.409243,-1.3959612 C 9.8845714,8.6279307 9.2057143,7.9315271 9.1428571,7.8260544 8.9976608,7.5824183 8.9817166,7.0883833 9.1106907,6.8293679 9.219003,6.6118466 9.4372439,6.3928478 9.6661527,6.271976 9.9336631,6.1307212 10.417392,6.1351707 10.695259,6.281446 c 0.129797,0.068326 0.991487,0.8814285 2.372413,2.2386423 1.19272,1.1722393 2.295088,2.2479317 2.449707,2.3904277 0.39133,0.360647 0.549714,0.660926 0.550546,1.043774 5.39e-4,0.248277 -0.02191,0.335698 -0.136496,0.531589 -0.0935,0.15983 -0.899056,0.981862 -2.531105,2.582857 -1.316679,1.291626 -2.476633,2.404792 -2.577677,2.473702 -0.318793,0.217411 -0.673372,0.270886 -1.0069857,0.151865 z"
     id="path47" />
</svg>
