<?xml version="1.0" encoding="UTF-8" standalone="no"?>
<svg
   xmlns:dc="http://purl.org/dc/elements/1.1/"
   xmlns:cc="http://creativecommons.org/ns#"
   xmlns:rdf="http://www.w3.org/1999/02/22-rdf-syntax-ns#"
   xmlns:svg="http://www.w3.org/2000/svg"
   xmlns="http://www.w3.org/2000/svg"
   xmlns:sodipodi="http://sodipodi.sourceforge.net/DTD/sodipodi-0.dtd"
   xmlns:inkscape="http://www.inkscape.org/namespaces/inkscape"
   height="511pt"
   viewBox="0 -10 511.98685 511"
   width="511pt"
   version="1.1"
   id="svg4"
   sodipodi:docname="estrela_selected_black.svg"
   inkscape:version="1.0.1 (3bc2e813f5, 2020-09-07)">
  <sodipodi:namedview
     pagecolor="#ffffff"
     bordercolor="#666666"
     borderopacity="1"
     objecttolerance="10"
     gridtolerance="10"
     guidetolerance="10"
     inkscape:pageopacity="0"
     inkscape:pageshadow="2"
     inkscape:window-width="1366"
     inkscape:window-height="715"
     id="namedview10"
     showgrid="false"
     inkscape:zoom="1.2622309"
     inkscape:cx="340.66667"
     inkscape:cy="340.66667"
     inkscape:window-x="-8"
     inkscape:window-y="-8"
     inkscape:window-maximized="1"
     inkscape:current-layer="svg4" />
  <metadata
     id="metadata10">
    <rdf:RDF>
      <cc:Work
         rdf:about="">
        <dc:format>image/svg+xml</dc:format>
        <dc:type
           rdf:resource="http://purl.org/dc/dcmitype/StillImage" />
        <dc:title />
      </cc:Work>
    </rdf:RDF>
  </metadata>
  <defs
     id="defs8" />
  <path
     d="m114.59375 491.140625c-5.609375 0-11.179688-1.75-15.933594-5.1875-8.855468-6.417969-12.992187-17.449219-10.582031-28.09375l32.9375-145.089844-111.703125-97.960937c-8.210938-7.167969-11.347656-18.519532-7.976562-28.90625 3.371093-10.367188 12.542968-17.707032 23.402343-18.710938l147.796875-13.417968 58.433594-136.746094c4.308594-10.046875 14.121094-16.535156 25.023438-16.535156 10.902343 0 20.714843 6.488281 25.023437 16.511718l58.433594 136.769532 147.773437 13.417968c10.882813.980469 20.054688 8.34375 23.425782 18.710938 3.371093 10.367187.253906 21.738281-7.957032 28.90625l-111.703125 97.941406 32.9375 145.085938c2.414063 10.667968-1.726562 21.699218-10.578125 28.097656-8.832031 6.398437-20.609375 6.890625-29.910156 1.300781l-127.445312-76.160156-127.445313 76.203125c-4.308594 2.558594-9.109375 3.863281-13.953125 3.863281zm141.398438-112.875c4.84375 0 9.640624 1.300781 13.953124 3.859375l120.277344 71.9375-31.085937-136.941406c-2.21875-9.746094 1.089843-19.921875 8.621093-26.515625l105.472657-92.5-139.542969-12.671875c-10.046875-.917969-18.6875-7.234375-22.613281-16.492188l-55.082031-129.046875-55.148438 129.066407c-3.882812 9.195312-12.523438 15.511718-22.546875 16.429687l-139.5625 12.671875 105.46875 92.5c7.554687 6.613281 10.859375 16.769531 8.621094 26.539062l-31.0625 136.9375 120.277343-71.914062c4.308594-2.558594 9.109376-3.859375 13.953126-3.859375zm-84.585938-221.847656s0 .023437-.023438.042969zm169.128906-.0625.023438.042969c0-.023438 0-.023438-.023438-.042969zm0 0"
     id="path2" />
  <path
     style="fill:#ffff00;stroke-width:4.75349;stroke-linejoin:round"
     d="m 136.71647,662.05215 c -5.56351,-2.82119 -10.23635,-6.72856 -13.25451,-11.08326 -8.67316,-12.51391 -8.50225,-13.83212 15.56272,-120.03379 11.84838,-52.28837 21.72503,-96.5607 21.94809,-98.38295 0.31719,-2.59106 -15.82563,-17.52117 -74.065731,-68.50163 C 45.481456,327.78864 10.190832,295.66648 7.3766762,291.66054 4.5942014,287.6997 1.8585333,281.39753 1.297414,277.65571 c -2.5641004,-17.09865 9.112034,-34.57251 26.034217,-38.96137 3.136396,-0.81345 49.909982,-5.48392 103.941299,-10.37883 54.03132,-4.89492 98.67344,-9.39728 99.2047,-10.00525 0.53127,-0.60796 18.25335,-41.74772 39.38243,-91.42167 21.12907,-49.673957 39.87936,-92.720087 41.66734,-95.658071 4.14149,-6.805306 15.50806,-14.044217 24.06786,-15.327835 12.32483,-1.848224 26.61068,4.464342 33.61077,14.851789 1.9267,2.859024 21.06759,46.327617 42.53533,96.596877 21.46775,50.26925 39.15995,91.51938 39.31602,91.66694 0.15607,0.14752 44.49121,4.25539 98.52253,9.12849 54.03131,4.8731 101.40794,9.70565 105.28138,10.73903 9.76585,2.60536 21.34664,13.99164 23.87825,23.4772 2.52976,9.47863 0.95358,21.34327 -3.78704,28.50684 -2.11965,3.20301 -37.79107,35.56565 -79.26984,71.917 -41.47877,36.35133 -75.41593,67.15706 -75.41593,68.45717 0,1.3001 10.03624,46.67999 22.30278,100.84418 16.73263,73.88478 22.04194,99.87073 21.25841,104.0473 -2.53402,13.50751 -13.13131,25.59652 -25.32797,28.89325 -14.99676,4.05361 -14.69506,4.19678 -105.70612,-50.16169 -46.4447,-27.74018 -86.22749,-51.44811 -88.40617,-52.6843 -3.81501,-2.16463 -7.0614,-0.39114 -87.93954,48.04119 -46.18806,27.65885 -86.83038,51.59992 -90.31627,53.20239 -9.28476,4.26822 -19.20195,3.80491 -29.41538,-1.37419 z m 105.55444,-90.68103 c 42.38254,-25.33714 79.66678,-47.37135 82.85386,-48.96491 8.59204,-4.29609 14.98698,-5.05337 23.51151,-2.78419 4.72926,1.2589 38.59398,20.58046 88.97965,50.76746 44.73951,26.80429 81.60242,48.4772 81.91759,48.16204 0.31516,-0.31517 -9.0599,-42.97454 -20.83346,-94.79861 -22.87011,-100.66806 -22.87439,-100.69787 -16.14421,-112.67258 2.11383,-3.76106 28.27487,-27.80644 70.78636,-65.06179 37.08835,-32.50271 69.59592,-60.99773 72.23908,-63.32227 2.64315,-2.32452 4.38389,-4.64826 3.8683,-5.16384 -0.5156,-0.51559 -43.29923,-4.76974 -95.07475,-9.45369 -68.51045,-6.19788 -95.86103,-9.23528 -100.46922,-11.15753 -13.47584,-5.6213 -13.92981,-6.46647 -54.01826,-100.56456 -20.64188,-48.45193 -38.02509,-88.653624 -38.62935,-89.337093 -0.60425,-0.683471 -16.66513,35.324203 -35.69084,80.017053 -39.03108,91.68704 -40.71811,95.37207 -46.51645,101.60716 -9.48501,10.19945 -8.71645,10.06553 -111.63262,19.45394 -52.399132,4.78006 -95.628152,9.04803 -96.064489,9.48435 -0.436338,0.43634 1.323985,2.49514 3.911826,4.5751 2.587842,2.07997 35.317342,30.7415 72.732223,63.69226 47.11936,41.49737 68.9751,61.7664 71.11173,65.94906 6.05276,11.8489 5.73859,13.99682 -16.26759,111.21414 -11.44151,50.54542 -21.13773,92.87143 -21.54718,94.05781 -0.47895,1.38777 0.0868,1.83806 1.58633,1.26264 1.28192,-0.49192 37.0074,-21.62479 79.38996,-46.96195 z"
     id="path835"
     transform="matrix(0.75144843,0,0,0.75144843,0,-10.493425)" />
  <path
     style="fill:#ffffff;stroke-width:4.75349;stroke-linejoin:round"
     d="m 163.7551,615.20185 c 0,-0.37995 9.2693,-41.53593 20.59845,-91.45773 11.32915,-49.92182 20.59148,-93.68223 20.58297,-97.24535 -0.009,-3.56312 -1.67665,-10.04352 -3.70698,-14.40088 -3.22599,-6.92343 -12.69841,-15.81494 -75.11641,-70.50971 C 86.829426,307.1652 54.900564,278.7886 55.160103,278.52906 c 0.259539,-0.25954 42.601503,-4.31575 94.093257,-9.01381 102.16237,-9.3212 102.69036,-9.41586 112.06487,-20.09297 3.31423,-3.77474 16.68611,-33.2365 41.85578,-92.21921 20.34211,-47.66981 37.48091,-86.113257 38.08622,-85.429871 0.60531,0.683386 17.31185,39.389261 37.12563,86.013061 19.81379,46.6238 37.99319,87.26292 40.39866,90.30918 9.56732,12.11587 8.55359,11.92362 112.40799,21.31635 51.63013,4.6695 94.17884,8.79588 94.55268,9.16974 0.37385,0.37384 -30.87086,28.33781 -69.4327,62.14216 -38.56183,33.80434 -71.72251,63.71891 -73.69038,66.47682 -1.96788,2.75791 -4.37216,8.90969 -5.34286,13.67061 -1.70281,8.3518 -1.03125,11.8811 19.09505,100.35225 11.47296,50.43282 20.65096,92.26169 20.39556,92.95306 -0.25541,0.69136 -33.61995,-18.68753 -74.14344,-43.06421 -40.52349,-24.37669 -77.89987,-46.49047 -83.05862,-49.14174 -10.68554,-5.49169 -23.27147,-6.46502 -32.67738,-2.52707 -3.01287,1.26139 -40.41609,23.17836 -83.11826,48.70439 -89.61626,53.56981 -80.01706,47.925 -80.01706,47.05405 z"
     id="path837"
     transform="matrix(0.75144843,0,0,0.75144843,0,-10.493425)" />
  <path
     style="fill:#ffffff;stroke-width:4.75349;stroke-linejoin:round"
     d="m 521.04142,663.49804 c -9.54792,-3.23803 -15.38992,-6.56863 -106.60374,-60.77597 l -71.76239,-42.64757 -8.25467,3.82163 c -4.54007,2.1019 -42.51941,24.1595 -84.39853,49.0169 -41.87914,24.8574 -79.10619,46.70652 -82.7268,48.55363 -20.37347,10.39376 -47.90608,-5.11038 -47.90608,-26.97685 0,-10.39461 3.60041,-28.21086 24.65192,-121.98736 L 162.3122,431.11184 150.7538,420.01737 C 144.39669,413.91542 120.65681,392.56791 97.998512,372.57846 22.225046,305.73009 7.4773324,291.73559 4.4494336,283.80715 -1.0950801,269.28904 4.4338104,252.91863 17.888892,244.01448 c 7.528429,-4.98207 4.851958,-4.6293 112.591788,-14.84066 45.75233,-4.33631 87.12509,-8.34776 91.93947,-8.91435 l 8.75341,-1.03016 39.34221,-91.57612 c 21.63823,-50.366879 40.6647,-93.750762 42.28105,-96.408637 4.28828,-7.051505 18.02885,-14.448853 26.83735,-14.448099 7.79216,6.66e-4 21.25825,5.509109 25.70108,10.513278 3.85373,4.340646 11.27724,20.821752 49.84874,110.670328 18.70591,43.57364 34.56959,79.7998 35.2526,80.50259 0.68301,0.70279 8.29618,1.9528 16.91816,2.77781 8.62197,0.82502 49.90144,4.70212 91.73213,8.61578 91.50283,8.56095 96.42865,9.24168 104.26533,14.40934 9.20912,6.07266 15.36413,16.8888 15.36413,26.99922 0,10.06056 -1.99791,15.75989 -7.62716,21.75749 -5.62463,5.99271 -43.39165,40.24704 -77.93563,70.68691 -56.87677,50.11934 -72.88682,65.2031 -72.88682,68.66986 0,1.84438 8.87603,43.30812 19.7245,92.14163 21.57864,97.13438 23.82545,108.49786 22.49391,113.76546 -1.84442,7.29657 -10.39184,18.38096 -17.13964,22.2269 -9.48956,5.40858 -15.08562,6.09128 -24.30408,2.96499 z M 216.60149,587.68777 c 121.9254,-72.39681 117.01147,-69.771 127.41125,-68.08336 6.97439,1.13179 23.95621,10.60689 104.15942,58.11628 70.24665,41.61151 70.4597,41.73247 71.56172,40.63046 0.42913,-0.42913 -7.78067,-39.16841 -18.244,-86.08729 -10.46335,-46.91888 -19.88975,-91.04623 -20.94756,-98.06079 -1.73021,-11.47326 -1.63668,-13.35776 0.93162,-18.77005 3.24235,-6.83276 24.44852,-26.52929 98.21139,-91.21981 27.01566,-23.69291 49.33659,-44.02389 49.60205,-45.17999 0.64494,-2.80866 -0.27979,-2.92837 -79.70747,-10.31838 -119.46998,-11.11561 -120.24545,-11.25907 -128.5301,-23.77803 -4.81536,-7.2765 -16.89141,-34.24557 -53.02885,-118.42776 -14.30553,-33.324713 -26.44603,-60.597853 -26.97893,-60.606976 -1.16942,-0.02003 -18.98778,40.074706 -48.18247,108.419826 -25.08459,58.72335 -30.4944,69.87614 -36.65632,75.57012 -8.49841,7.85307 -11.02817,8.24813 -115.42333,18.02502 -87.822296,8.22481 -89.855631,8.47305 -89.094497,10.87725 0.311749,0.98474 23.680297,22.11158 51.930107,46.94856 58.37374,51.32167 89.22428,79.56029 94.05458,86.0916 6.91365,9.34834 5.33655,19.16009 -22.95637,142.82079 -7.77019,33.96144 -14.12762,62.30412 -14.12762,62.98372 0,0.67963 0.78588,1.23567 1.74638,1.23567 0.96051,0 25.38156,-14.03409 54.269,-31.18686 z"
     id="path839"
     transform="matrix(0.75144843,0,0,0.75144843,0,-10.493425)" />
  <path
     style="fill:#ffff00;stroke-width:4.75349;stroke-linejoin:round"
     d="m 164.23472,612.37685 c 8.55012,-34.51177 40.71728,-181.66043 40.71728,-186.26118 0,-14.79537 -2.55752,-17.53322 -79.1273,-84.70634 -39.125594,-34.32408 -70.925818,-62.61905 -70.667168,-62.8777 0.25865,-0.25865 39.237636,-3.98567 86.619968,-8.28227 47.38233,-4.2966 90.72033,-8.5825 96.30666,-9.52426 12.55046,-2.11577 17.56807,-4.63778 23.46856,-11.79609 2.72551,-3.30652 19.6777,-40.74975 41.63305,-91.95718 20.36952,-47.50876 37.5061,-85.834288 38.08127,-85.167838 0.57519,0.666449 16.57654,37.575908 35.55857,82.021028 18.98204,44.44512 36.22031,84.20285 38.3073,88.35051 5.09681,10.12943 13.86744,16.25854 26.3225,18.39478 5.43715,0.93254 46.60644,4.95369 91.48729,8.93587 44.88085,3.98219 84.33127,7.74741 87.66759,8.36719 l 6.06603,1.12684 -67.90374,59.62724 c -37.34706,32.79498 -70.49116,62.4912 -73.65356,65.99159 -4.01739,4.44677 -6.34389,9.01899 -7.72155,15.175 -1.94663,8.6985 -1.70385,9.99209 19.07266,101.62457 11.57441,51.04765 20.77237,93.07042 20.43988,93.38393 -0.3325,0.31353 -34.47313,-19.75646 -75.86809,-44.59997 -41.39496,-24.8435 -79.004,-46.92322 -83.57567,-49.06603 -9.60124,-4.50025 -22.29199,-5.17322 -30.6842,-1.6271 -2.95326,1.2479 -40.30772,23.14172 -83.00989,48.65293 -42.70218,25.51122 -78.27907,46.7512 -79.05977,47.19997 -0.78071,0.44878 -0.99566,-0.89468 -0.47767,-2.98549 z"
     id="path841"
     transform="matrix(0.75144843,0,0,0.75144843,0,-10.493425)" />
  <path
     style="fill:#000000;stroke-width:2.37674;stroke-linejoin:round"
     d="m 146.37786,663.53435 c -10.89071,-2.44936 -21.33319,-10.83489 -24.70061,-19.83512 -2.94926,-7.8826 -2.18957,-16.16757 4.35854,-47.53256 2.75396,-13.19131 24.91825,-112.90937 32.75323,-147.35814 l 3.96413,-17.42946 -9.28232,-9.11085 C 144.83897,413.79581 122.5962,393.77374 72.059847,348.98527 32.578094,313.99407 11.794704,294.35734 7.2072709,287.71072 -1.0940949,275.68307 2.8287665,256.46726 15.665376,246.27937 c 8.500883,-6.74679 4.883022,-6.2101 108.717574,-16.12767 76.33158,-7.29067 101.43655,-9.76433 104.67864,-10.31426 2.4583,-0.417 2.65942,-0.84132 24.5043,-51.70065 12.11413,-28.20411 28.15606,-65.36241 35.64875,-82.573999 26.2525,-60.305035 24.26697,-56.46673 31.79459,-61.463286 9.38478,-6.22926 18.36869,-8.012101 27.23806,-5.405343 6.33672,1.862398 14.84977,6.563362 16.95199,9.361001 4.31474,5.74209 11.49545,21.690842 51.77247,114.989657 12.23742,28.34709 24.69859,57.04614 27.69151,63.77566 l 5.44165,12.2355 5.3753,0.97422 c 2.95642,0.53581 39.65281,4.20619 81.54755,8.15638 87.99495,8.29692 102.80648,9.85219 112.71726,11.83578 9.10692,1.82271 12.06544,3.23574 17.70324,8.45536 13.24069,12.25855 14.58826,31.75982 3.06264,44.32122 -4.99465,5.44352 -33.18051,31.03338 -81.46864,73.96517 -48.93346,43.50553 -63.67273,57.10772 -66.84585,61.68893 -2.02273,2.92035 -2.20966,3.69483 -1.70507,7.06423 0.75414,5.03574 8.03759,38.83782 22.58076,104.79591 17.41806,78.99673 18.40313,83.9265 18.52614,92.71324 0.10218,7.29973 0.015,7.69793 -2.66723,12.17394 -6.83333,11.40349 -18.35616,19.49576 -27.7606,19.49576 -8.36652,0 -15.14908,-2.87383 -38.48585,-16.30681 -11.50879,-6.62463 -72.75943,-42.88219 -129.91554,-76.90402 -10.50199,-6.25125 -19.68276,-11.36591 -20.40171,-11.36591 -3.13194,0 -23.13452,11.38749 -105.08902,59.8273 -61.25993,36.20815 -71.74268,42.22041 -75.20632,43.13375 -5.33761,1.40749 -10.7572,1.56425 -15.69411,0.45392 z m 33.9474,-54.17721 c 9.75521,-5.59947 39.21371,-22.89818 65.46332,-38.4416 56.94099,-33.71697 71.68693,-42.22327 82.20212,-47.41891 7.52746,-3.71939 8.18032,-3.89742 13.09366,-3.57052 8.75453,0.58246 16.37202,4.7342 108.91254,59.3604 29.19434,17.23328 56.30772,33.16158 60.25194,35.39622 6.86616,3.89011 9.86201,4.90406 9.86201,3.33779 0,-1.69064 -7.12613,-35.31591 -16.7202,-78.89571 -10.26167,-46.61224 -18.0034,-82.51048 -21.35682,-99.03101 -0.97292,-4.7931 -1.80553,-11.56682 -1.85023,-15.05271 -0.0708,-5.52247 0.18967,-6.79672 2.02441,-9.90311 4.07761,-6.90376 24.07842,-25.59643 83.06098,-77.62843 62.63249,-55.25182 66.33799,-58.79062 63.43721,-60.5834 -1.61095,-0.99562 -19.36653,-2.9596 -68.1907,-7.54273 -95.21055,-8.93742 -113.80448,-11.08181 -125.16095,-14.43448 -5.00018,-1.47617 -6.59574,-2.39953 -9.94154,-5.75327 -6.64277,-6.65855 -9.82119,-13.52703 -59.40721,-128.37784 -17.27416,-40.010302 -24.24892,-55.160211 -25.24367,-54.831888 -1.50784,0.497669 -13.0618,26.324076 -46.6819,104.347388 -28.80354,66.84534 -31.31433,72.0322 -38.22083,78.9576 -8.00173,8.02361 -10.63738,8.42223 -130.28808,19.70501 C 57.380084,275.42621 51.1,276.20245 51.1,278.20081 c 0,0.46912 1.336919,2.09589 2.97093,3.61506 10.797348,10.03853 30.109673,27.35671 57.23992,51.32945 48.07831,42.48279 61.11688,54.3233 74.98764,68.09735 12.50182,12.41466 12.81931,12.81284 13.80324,17.31107 2.20208,10.06724 -0.99209,26.78917 -27.26834,142.75401 -5.4303,23.96551 -10.47914,46.3405 -11.21967,49.7222 -1.29954,5.93464 -1.21881,8.50803 0.2669,8.50803 0.38934,0 8.68942,-4.58138 18.44464,-10.18084 z"
     id="path836"
     transform="matrix(0.75144843,0,0,0.75144843,0,-10.493425)" />
</svg>
