<?xml version="1.0" encoding="UTF-8" standalone="no"?>
<svg
   xmlns:dc="http://purl.org/dc/elements/1.1/"
   xmlns:cc="http://creativecommons.org/ns#"
   xmlns:rdf="http://www.w3.org/1999/02/22-rdf-syntax-ns#"
   xmlns:svg="http://www.w3.org/2000/svg"
   xmlns="http://www.w3.org/2000/svg"
   xmlns:sodipodi="http://sodipodi.sourceforge.net/DTD/sodipodi-0.dtd"
   xmlns:inkscape="http://www.inkscape.org/namespaces/inkscape"
   height="511pt"
   viewBox="0 -10 511.98685 511"
   width="511pt"
   version="1.1"
   id="svg4"
   sodipodi:docname="estrela_black_empty - Copy.svg"
   inkscape:version="1.0.1 (3bc2e813f5, 2020-09-07)">
  <metadata
     id="metadata10">
    <rdf:RDF>
      <cc:Work
         rdf:about="">
        <dc:format>image/svg+xml</dc:format>
        <dc:type
           rdf:resource="http://purl.org/dc/dcmitype/StillImage" />
      </cc:Work>
    </rdf:RDF>
  </metadata>
  <defs
     id="defs8" />
  <sodipodi:namedview
     pagecolor="#ffffff"
     bordercolor="#666666"
     borderopacity="1"
     objecttolerance="10"
     gridtolerance="10"
     guidetolerance="10"
     inkscape:pageopacity="0"
     inkscape:pageshadow="2"
     inkscape:window-width="1366"
     inkscape:window-height="715"
     id="namedview6"
     showgrid="false"
     inkscape:zoom="1.2622309"
     inkscape:cx="340.66667"
     inkscape:cy="340.66667"
     inkscape:window-x="-8"
     inkscape:window-y="-8"
     inkscape:window-maximized="1"
     inkscape:current-layer="svg4" />
  <path
     d="m114.59375 491.140625c-5.609375 0-11.179688-1.75-15.933594-5.1875-8.855468-6.417969-12.992187-17.449219-10.582031-28.09375l32.9375-145.089844-111.703125-97.960937c-8.210938-7.167969-11.347656-18.519532-7.976562-28.90625 3.371093-10.367188 12.542968-17.707032 23.402343-18.710938l147.796875-13.417968 58.433594-136.746094c4.308594-10.046875 14.121094-16.535156 25.023438-16.535156 10.902343 0 20.714843 6.488281 25.023437 16.511718l58.433594 136.769532 147.773437 13.417968c10.882813.980469 20.054688 8.34375 23.425782 18.710938 3.371093 10.367187.253906 21.738281-7.957032 28.90625l-111.703125 97.941406 32.9375 145.085938c2.414063 10.667968-1.726562 21.699218-10.578125 28.097656-8.832031 6.398437-20.609375 6.890625-29.910156 1.300781l-127.445312-76.160156-127.445313 76.203125c-4.308594 2.558594-9.109375 3.863281-13.953125 3.863281zm141.398438-112.875c4.84375 0 9.640624 1.300781 13.953124 3.859375l120.277344 71.9375-31.085937-136.941406c-2.21875-9.746094 1.089843-19.921875 8.621093-26.515625l105.472657-92.5-139.542969-12.671875c-10.046875-.917969-18.6875-7.234375-22.613281-16.492188l-55.082031-129.046875-55.148438 129.066407c-3.882812 9.195312-12.523438 15.511718-22.546875 16.429687l-139.5625 12.671875 105.46875 92.5c7.554687 6.613281 10.859375 16.769531 8.621094 26.539062l-31.0625 136.9375 120.277343-71.914062c4.308594-2.558594 9.109376-3.859375 13.953126-3.859375zm-84.585938-221.847656s0 .023437-.023438.042969zm169.128906-.0625.023438.042969c0-.023438 0-.023438-.023438-.042969zm0 0"
     id="path2" />
  <path
     style="fill:#ffff00;stroke-width:2.37674;stroke-linejoin:round"
     d="m 163.03628,615.55508 c 3.53655,-14.14964 41.22702,-182.11945 41.54335,-185.14045 0.9245,-8.82888 -3.26268,-20.74909 -9.58972,-27.30037 -1.81934,-1.88381 -34.40452,-30.67998 -72.41151,-63.99149 -38.007,-33.3115 -68.835806,-60.79556 -68.508459,-61.07568 0.327346,-0.28012 41.415757,-4.17147 91.307579,-8.64746 49.89182,-4.47598 92.63295,-8.44334 94.98029,-8.81634 8.86545,-1.40879 18.52645,-7.63405 23.84401,-15.36438 1.57727,-2.29292 61.47882,-140.93997 75.39684,-174.512143 1.06309,-2.564333 1.14139,-2.404042 17.02719,34.858913 62.11834,145.70963 58.80542,138.20652 63.09679,142.90195 2.18617,2.39202 5.53099,5.41977 7.43292,6.72834 7.44873,5.12486 5.7626,4.90271 105.23514,13.8654 50.98116,4.59351 93.34524,8.59973 94.1424,8.90269 1.14932,0.43681 -12.87781,13.11607 -67.75629,61.24556 -38.06311,33.38208 -70.69831,62.23257 -72.52266,64.11217 -6.4276,6.62228 -10.44186,18.30795 -9.44526,27.49558 0.26983,2.48762 9.76364,45.31683 21.09734,95.17602 11.3337,49.8592 20.52061,90.73047 20.41536,90.82504 -0.10525,0.0946 -36.43119,-21.52116 -80.72433,-48.03496 -50.63033,-30.30725 -82.31777,-48.80818 -85.33973,-49.8262 -6.50831,-2.19249 -16.63138,-2.20666 -23.08584,-0.0323 -2.88663,0.97244 -35.3203,19.88808 -83.75524,48.84692 -43.4744,25.99296 -79.90508,47.81843 -80.95707,48.50104 -1.86133,1.20777 -1.89957,1.18848 -1.4231,-0.71784 z"
     id="path835"
     transform="matrix(0.75144843,0,0,0.75144843,0,-10.493425)" />
</svg>
