<?xml version="1.0" encoding="UTF-8" standalone="no"?>
<svg
   xmlns:dc="http://purl.org/dc/elements/1.1/"
   xmlns:cc="http://creativecommons.org/ns#"
   xmlns:rdf="http://www.w3.org/1999/02/22-rdf-syntax-ns#"
   xmlns:svg="http://www.w3.org/2000/svg"
   xmlns="http://www.w3.org/2000/svg"
   xmlns:sodipodi="http://sodipodi.sourceforge.net/DTD/sodipodi-0.dtd"
   xmlns:inkscape="http://www.inkscape.org/namespaces/inkscape"
   id="Layer_1"
   data-name="Layer 1"
   viewBox="0 0 128 128"
   version="1.1"
   sodipodi:docname="estrela_white.svg"
   inkscape:version="1.0.1 (3bc2e813f5, 2020-09-07)">
  <metadata
     id="metadata13">
    <rdf:RDF>
      <cc:Work
         rdf:about="">
        <dc:format>image/svg+xml</dc:format>
        <dc:type
           rdf:resource="http://purl.org/dc/dcmitype/StillImage" />
      </cc:Work>
    </rdf:RDF>
  </metadata>
  <sodipodi:namedview
     pagecolor="#ffffff"
     bordercolor="#666666"
     borderopacity="1"
     objecttolerance="10"
     gridtolerance="10"
     guidetolerance="10"
     inkscape:pageopacity="0"
     inkscape:pageshadow="2"
     inkscape:window-width="1366"
     inkscape:window-height="715"
     id="namedview11"
     showgrid="false"
     inkscape:zoom="3.359375"
     inkscape:cx="51.798721"
     inkscape:cy="70.4567"
     inkscape:window-x="-8"
     inkscape:window-y="-8"
     inkscape:window-maximized="1"
     inkscape:current-layer="Layer_1" />
  <defs
     id="defs4">
    <style
       id="style2">.cls-1{fill:#2d3e50;}</style>
  </defs>
  <title
     id="title6">x</title>
  <path
     class="cls-1"
     d="M126.458,49.80865a3.82834,3.82834,0,0,0-3.44158-2.6787l-.07-.00454L88.69406,44.64167a9.42326,9.42326,0,0,1-7.92474-5.78056L67.71535,7.113a4.00473,4.00473,0,0,0-7.413.00632L47.21657,38.90681a9.335,9.335,0,0,1-7.9738,5.76625L4.97754,47.1571a3.83874,3.83874,0,0,0-3.433,2.69558,3.88633,3.88633,0,0,0,1.12761,4.26546l26.39325,21.8175a9.39826,9.39826,0,0,1,3.12215,9.40766l-8.1266,33.2117a3.61175,3.61175,0,0,0,.57676,3.271,3.93479,3.93479,0,0,0,3.054,1.54619,3.458,3.458,0,0,0,1.96325-.60736l.12018-.07778,28.92946-17.99574a9.3007,9.3007,0,0,1,9.81731-.046L97.91,122.70674a3.62289,3.62289,0,0,0,1.98269.63826,3.72763,3.72763,0,0,0,2.8464-1.448,4.10881,4.10881,0,0,0,.77325-3.51852L95.4254,85.34882a9.386,9.386,0,0,1,3.17131-9.46008l26.73153-21.83132A3.87416,3.87416,0,0,0,126.458,49.80865Z"
     id="path8" />
  <path
     style="fill:#ffffff;stroke-width:0.297674"
     d="m 25.77228,122.5657 c -1.048988,-0.6915 -1.63244,-1.66654 -1.646732,-2.75194 -0.0058,-0.4406 1.874442,-8.4778 4.178319,-17.86047 C 32.26323,85.828589 32.486468,84.761989 32.378358,82.486158 32.174883,78.202819 32.488301,78.541337 16.491263,65.326927 8.8145506,58.985554 2.2998909,53.426484 2.0142412,52.973439 1.3523925,51.923737 1.3520019,50.63974 2.0131366,49.342245 2.9978103,47.409794 2.932929,47.420358 22.180116,46.058632 c 9.659535,-0.683407 18.097851,-1.381347 18.751815,-1.550979 1.940963,-0.503472 3.264366,-1.319395 4.649136,-2.866343 1.162323,-1.298456 2.057517,-3.286701 8.135838,-18.069882 3.756398,-9.135992 7.148594,-16.9897447 7.538217,-17.4527837 0.389623,-0.463039 1.22126,-0.9955452 1.848088,-1.183347 0.969359,-0.2904267 1.310271,-0.2578646 2.281112,0.2178793 0.627783,0.3076354 1.411102,0.9688193 1.740702,1.4692976 0.329603,0.5004783 3.613231,8.2542378 7.296952,17.2305768 7.1923,17.525901 7.454756,18.030143 10.23154,19.657449 0.683336,0.400461 1.909159,0.861809 2.724049,1.025214 0.814892,0.163406 9.250923,0.85162 18.746735,1.529365 10.8955,0.777645 17.6135,1.376896 18.20941,1.62429 1.84374,0.765432 2.68883,3.336243 1.67777,5.103855 -0.30869,0.539686 -6.18904,5.541355 -13.78485,11.725026 -7.28558,5.931121 -13.755344,11.267593 -14.377245,11.858828 -1.441846,1.370743 -2.524833,3.600294 -2.76336,5.688924 -0.205192,1.796775 -0.230617,1.681104 5.528715,25.153488 l 2.99462,12.20465 -0.4884,1.29032 c -0.55368,1.46277 -1.8477,2.42776 -3.257897,2.4295 -0.665291,8.9e-4 -4.93727,-2.48143 -16.223256,-9.42659 -8.426085,-5.18524 -15.989924,-9.68651 -16.808528,-10.00283 -1.153012,-0.44552 -1.998143,-0.54632 -3.750796,-0.44735 -2.82162,0.15934 -2.053442,-0.26103 -20.211995,11.06046 -15.210142,9.48322 -15.208499,9.48243 -17.096208,8.23805 z"
     id="path15" />
</svg>
