<?xml version="1.0" encoding="UTF-8" standalone="no"?>
<svg
   xmlns:dc="http://purl.org/dc/elements/1.1/"
   xmlns:cc="http://creativecommons.org/ns#"
   xmlns:rdf="http://www.w3.org/1999/02/22-rdf-syntax-ns#"
   xmlns:svg="http://www.w3.org/2000/svg"
   xmlns="http://www.w3.org/2000/svg"
   height="511pt"
   viewBox="0 -10 511.98685 511"
   width="511pt"
   version="1.1"
   id="svg4">
  <metadata
     id="metadata10">
    <rdf:RDF>
      <cc:Work
         rdf:about="">
        <dc:format>image/svg+xml</dc:format>
        <dc:type
           rdf:resource="http://purl.org/dc/dcmitype/StillImage" />
        <dc:title></dc:title>
      </cc:Work>
    </rdf:RDF>
  </metadata>
  <defs
     id="defs8" />
  <path
     d="m114.59375 491.140625c-5.609375 0-11.179688-1.75-15.933594-5.1875-8.855468-6.417969-12.992187-17.449219-10.582031-28.09375l32.9375-145.089844-111.703125-97.960937c-8.210938-7.167969-11.347656-18.519532-7.976562-28.90625 3.371093-10.367188 12.542968-17.707032 23.402343-18.710938l147.796875-13.417968 58.433594-136.746094c4.308594-10.046875 14.121094-16.535156 25.023438-16.535156 10.902343 0 20.714843 6.488281 25.023437 16.511718l58.433594 136.769532 147.773437 13.417968c10.882813.980469 20.054688 8.34375 23.425782 18.710938 3.371093 10.367187.253906 21.738281-7.957032 28.90625l-111.703125 97.941406 32.9375 145.085938c2.414063 10.667968-1.726562 21.699218-10.578125 28.097656-8.832031 6.398437-20.609375 6.890625-29.910156 1.300781l-127.445312-76.160156-127.445313 76.203125c-4.308594 2.558594-9.109375 3.863281-13.953125 3.863281zm141.398438-112.875c4.84375 0 9.640624 1.300781 13.953124 3.859375l120.277344 71.9375-31.085937-136.941406c-2.21875-9.746094 1.089843-19.921875 8.621093-26.515625l105.472657-92.5-139.542969-12.671875c-10.046875-.917969-18.6875-7.234375-22.613281-16.492188l-55.082031-129.046875-55.148438 129.066407c-3.882812 9.195312-12.523438 15.511718-22.546875 16.429687l-139.5625 12.671875 105.46875 92.5c7.554687 6.613281 10.859375 16.769531 8.621094 26.539062l-31.0625 136.9375 120.277343-71.914062c4.308594-2.558594 9.109376-3.859375 13.953126-3.859375zm-84.585938-221.847656s0 .023437-.023438.042969zm169.128906-.0625.023438.042969c0-.023438 0-.023438-.023438-.042969zm0 0"
     id="path2" />
  <path
     style="fill:#ffffff;stroke-width:4.75349;stroke-linejoin:round"
     d="m 136.71647,662.05215 c -5.56351,-2.82119 -10.23635,-6.72856 -13.25451,-11.08326 -8.67316,-12.51391 -8.50225,-13.83212 15.56272,-120.03379 11.84838,-52.28837 21.72503,-96.5607 21.94809,-98.38295 0.31719,-2.59106 -15.82563,-17.52117 -74.065731,-68.50163 C 45.481456,327.78864 10.190832,295.66648 7.3766762,291.66054 4.5942014,287.6997 1.8585333,281.39753 1.297414,277.65571 c -2.5641004,-17.09865 9.112034,-34.57251 26.034217,-38.96137 3.136396,-0.81345 49.909982,-5.48392 103.941299,-10.37883 54.03132,-4.89492 98.67344,-9.39728 99.2047,-10.00525 0.53127,-0.60796 18.25335,-41.74772 39.38243,-91.42167 21.12907,-49.673957 39.87936,-92.720087 41.66734,-95.658071 4.14149,-6.805306 15.50806,-14.044217 24.06786,-15.327835 12.32483,-1.848224 26.61068,4.464342 33.61077,14.851789 1.9267,2.859024 21.06759,46.327617 42.53533,96.596877 21.46775,50.26925 39.15995,91.51938 39.31602,91.66694 0.15607,0.14752 44.49121,4.25539 98.52253,9.12849 54.03131,4.8731 101.40794,9.70565 105.28138,10.73903 9.76585,2.60536 21.34664,13.99164 23.87825,23.4772 2.52976,9.47863 0.95358,21.34327 -3.78704,28.50684 -2.11965,3.20301 -37.79107,35.56565 -79.26984,71.917 -41.47877,36.35133 -75.41593,67.15706 -75.41593,68.45717 0,1.3001 10.03624,46.67999 22.30278,100.84418 16.73263,73.88478 22.04194,99.87073 21.25841,104.0473 -2.53402,13.50751 -13.13131,25.59652 -25.32797,28.89325 -14.99676,4.05361 -14.69506,4.19678 -105.70612,-50.16169 -46.4447,-27.74018 -86.22749,-51.44811 -88.40617,-52.6843 -3.81501,-2.16463 -7.0614,-0.39114 -87.93954,48.04119 -46.18806,27.65885 -86.83038,51.59992 -90.31627,53.20239 -9.28476,4.26822 -19.20195,3.80491 -29.41538,-1.37419 z m 105.55444,-90.68103 c 42.38254,-25.33714 79.66678,-47.37135 82.85386,-48.96491 8.59204,-4.29609 14.98698,-5.05337 23.51151,-2.78419 4.72926,1.2589 38.59398,20.58046 88.97965,50.76746 44.73951,26.80429 81.60242,48.4772 81.91759,48.16204 0.31516,-0.31517 -9.0599,-42.97454 -20.83346,-94.79861 -22.87011,-100.66806 -22.87439,-100.69787 -16.14421,-112.67258 2.11383,-3.76106 28.27487,-27.80644 70.78636,-65.06179 37.08835,-32.50271 69.59592,-60.99773 72.23908,-63.32227 2.64315,-2.32452 4.38389,-4.64826 3.8683,-5.16384 -0.5156,-0.51559 -43.29923,-4.76974 -95.07475,-9.45369 -68.51045,-6.19788 -95.86103,-9.23528 -100.46922,-11.15753 -13.47584,-5.6213 -13.92981,-6.46647 -54.01826,-100.56456 -20.64188,-48.45193 -38.02509,-88.653624 -38.62935,-89.337093 -0.60425,-0.683471 -16.66513,35.324203 -35.69084,80.017053 -39.03108,91.68704 -40.71811,95.37207 -46.51645,101.60716 -9.48501,10.19945 -8.71645,10.06553 -111.63262,19.45394 -52.399132,4.78006 -95.628152,9.04803 -96.064489,9.48435 -0.436338,0.43634 1.323985,2.49514 3.911826,4.5751 2.587842,2.07997 35.317342,30.7415 72.732223,63.69226 47.11936,41.49737 68.9751,61.7664 71.11173,65.94906 6.05276,11.8489 5.73859,13.99682 -16.26759,111.21414 -11.44151,50.54542 -21.13773,92.87143 -21.54718,94.05781 -0.47895,1.38777 0.0868,1.83806 1.58633,1.26264 1.28192,-0.49192 37.0074,-21.62479 79.38996,-46.96195 z"
     id="path835"
     transform="matrix(0.75144843,0,0,0.75144843,0,-10.493425)" />
</svg>
