<?xml version="1.0" encoding="UTF-8" standalone="no"?>
<svg
   xmlns:dc="http://purl.org/dc/elements/1.1/"
   xmlns:cc="http://creativecommons.org/ns#"
   xmlns:rdf="http://www.w3.org/1999/02/22-rdf-syntax-ns#"
   xmlns:svg="http://www.w3.org/2000/svg"
   xmlns="http://www.w3.org/2000/svg"
   xmlns:sodipodi="http://sodipodi.sourceforge.net/DTD/sodipodi-0.dtd"
   xmlns:inkscape="http://www.inkscape.org/namespaces/inkscape"
   version="1.1"
   viewBox="0 0 129 129"
   enable-background="new 0 0 129 129"
   id="svg109"
   sodipodi:docname="logout.svg"
   inkscape:version="1.0.1 (3bc2e813f5, 2020-09-07)">
  <metadata
     id="metadata115">
    <rdf:RDF>
      <cc:Work
         rdf:about="">
        <dc:format>image/svg+xml</dc:format>
        <dc:type
           rdf:resource="http://purl.org/dc/dcmitype/StillImage" />
      </cc:Work>
    </rdf:RDF>
  </metadata>
  <defs
     id="defs113" />
  <sodipodi:namedview
     pagecolor="#ffffff"
     bordercolor="#666666"
     borderopacity="1"
     objecttolerance="10"
     gridtolerance="10"
     guidetolerance="10"
     inkscape:pageopacity="0"
     inkscape:pageshadow="2"
     inkscape:window-width="1366"
     inkscape:window-height="715"
     id="namedview111"
     showgrid="false"
     inkscape:zoom="3.3333333"
     inkscape:cx="50.797511"
     inkscape:cy="75.400541"
     inkscape:window-x="-8"
     inkscape:window-y="-8"
     inkscape:window-maximized="1"
     inkscape:current-layer="svg109" />
  <g
     id="g107">
    <g
       id="g105">
      <path
         d="m88.6,94.4c0.8,0.8 1.8,1.2 2.9,1.2s2.1-0.4 2.9-1.2l27-27c0.2-0.2 0.4-0.4 0.5-0.6 0,0 0.1-0.1 0.1-0.2 0.1-0.2 0.2-0.4 0.3-0.5 0-0.1 0-0.2 0.1-0.2 0.1-0.2 0.1-0.3 0.2-0.5 0.1-0.3 0.1-0.5 0.1-0.8 0-0.3 0-0.5-0.1-0.8 0-0.2-0.1-0.4-0.2-0.5 0-0.1 0-0.2-0.1-0.2-0.1-0.2-0.2-0.4-0.3-0.6 0,0 0-0.1-0.1-0.1-0.1-0.2-0.3-0.4-0.5-0.6l-27-27c-1.6-1.6-4.2-1.6-5.8,0-1.6,1.6-1.6,4.2 0,5.8l20,20h-71.1c-2.3,0-4.1,1.8-4.1,4.1 0,2.3 1.8,4.1 4.1,4.1h71.1l-20,20c-1.6,1.4-1.6,4 0,5.6z"
         id="path101" />
      <path
         d="m10.5,122.5h54c2.3,0 4.1-1.8 4.1-4.1v-40.3c0-2.3-1.8-4.1-4.1-4.1s-4.1,1.8-4.1,4.1v36.2h-45.8v-99.7h45.8v36.2c0,2.3 1.8,4.1 4.1,4.1s4.1-1.8 4.1-4.1v-40.3c0-2.3-1.8-4.1-4.1-4.1h-54c-2.3,0-4.1,1.8-4.1,4.1v107.9c0.1,2.3 1.9,4.1 4.1,4.1z"
         id="path103" />
    </g>
  </g>
  <path
     style="fill:#ffffff;stroke-width:0.3"
     d="M 9.7022881,122.19719 C 9.1093966,122.05561 8.2330563,121.48492 7.677288,120.87847 L 6.6975106,119.80935 V 64.576235 C 6.6975106,3.3736323 6.5307044,8.376962 8.613173,7.1162034 9.5109388,6.572682 10.645439,6.550541 37.597511,6.550541 h 28.05 l 1.008942,0.7195969 c 1.897077,1.3530332 1.841058,0.6379581 1.841058,23.5004481 0,19.56131 -0.03238,20.849693 -0.548181,21.811457 -1.323408,2.467635 -4.550559,2.774277 -6.502527,0.617865 -0.582258,-0.643242 -0.603555,-1.200477 -0.749292,-19.605714 l -0.15,-18.943653 -23.025,-0.07686 -23.025,-0.07686 v 49.953725 49.953734 l 23.025,-0.0769 23.025,-0.0769 0.15,-18.943657 c 0.145737,-18.405237 0.167034,-18.962472 0.749292,-19.605714 1.951968,-2.156412 5.179119,-1.84977 6.502527,0.617865 0.515802,0.961764 0.548181,2.250147 0.548181,21.811458 0,22.862498 0.05602,22.147418 -1.841058,23.500448 l -1.008942,0.7196 -27.45,0.0481 c -15.0975,0.0265 -27.920351,-0.0642 -28.4952229,-0.20147 z"
     id="path117" />
  <path
     style="fill:#ffffff;stroke-width:0.3"
     d="m 89.878418,95.055764 c -1.30155,-0.565818 -2.178387,-2.072445 -2.179785,-3.745422 l -0.0011,-1.340199 10.563426,-10.578891 10.563421,-10.578891 -36.138421,-0.08091 c -34.798724,-0.07791 -36.173063,-0.10188 -37.072764,-0.646572 -2.729231,-1.652319 -2.511287,-5.764694 0.369299,-6.96828 0.830216,-0.346886 6.969829,-0.416058 36.92875,-0.416058 H 108.8442 l -10.082806,-10.125 C 93.215849,45.006791 88.457843,40.116753 88.188047,39.708789 c -1.21836,-1.842312 -0.158832,-4.845743 1.999197,-5.667096 2.279781,-0.86769 2.124012,-0.996205 17.666716,14.575606 9.56019,9.578089 14.37316,14.606942 14.50752,15.158242 0.11059,0.45375 0.11058,1.19625 -2e-5,1.65 -0.257,1.054326 -28.08791,29.052024 -29.479313,29.655975 -1.192605,0.517662 -1.765011,0.512754 -3.003729,-0.02574 z"
     id="path119" />
</svg>
