<?xml version="1.0" encoding="UTF-8" standalone="no"?>
<svg
   xmlns:dc="http://purl.org/dc/elements/1.1/"
   xmlns:cc="http://creativecommons.org/ns#"
   xmlns:rdf="http://www.w3.org/1999/02/22-rdf-syntax-ns#"
   xmlns:svg="http://www.w3.org/2000/svg"
   xmlns="http://www.w3.org/2000/svg"
   xmlns:sodipodi="http://sodipodi.sourceforge.net/DTD/sodipodi-0.dtd"
   xmlns:inkscape="http://www.inkscape.org/namespaces/inkscape"
   id="i-options"
   viewBox="0 0 32 32"
   fill="none"
   stroke="#000"
   stroke-linecap="round"
   stroke-linejoin="round"
   stroke-width="2"
   version="1.1"
   sodipodi:docname="options_logo.svg"
   inkscape:version="1.0.1 (3bc2e813f5, 2020-09-07)">
  <metadata
     id="metadata9">
    <rdf:RDF>
      <cc:Work
         rdf:about="">
        <dc:format>image/svg+xml</dc:format>
        <dc:type
           rdf:resource="http://purl.org/dc/dcmitype/StillImage" />
      </cc:Work>
    </rdf:RDF>
  </metadata>
  <defs
     id="defs7" />
  <sodipodi:namedview
     pagecolor="#ffffff"
     bordercolor="#666666"
     borderopacity="1"
     objecttolerance="10"
     gridtolerance="10"
     guidetolerance="10"
     inkscape:pageopacity="0"
     inkscape:pageshadow="2"
     inkscape:window-width="1366"
     inkscape:window-height="715"
     id="namedview5"
     showgrid="false"
     inkscape:zoom="13.4375"
     inkscape:cx="8.1241571"
     inkscape:cy="16.827083"
     inkscape:window-x="-8"
     inkscape:window-y="-8"
     inkscape:window-maximized="1"
     inkscape:current-layer="i-options" />
  <path
     style="fill:#ffffff;stroke-width:0.195331"
     d="M 25.124874,11.410606 C 24.514011,11.037709 24.452608,10.820974 24.418905,8.9187224 L 24.388752,7.216518 H 12.828628 C 2.2874263,7.216518 1.2467226,7.2011101 1.021362,7.0417436 0.67845076,6.799249 0.4822311,6.3564031 0.4822311,5.8249944 c 0,-0.3805248 0.0536591,-0.5144762 0.34654629,-0.8651069 L 1.1753238,4.5450195 H 12.782036 24.388748 l 0.03015,-1.7022042 c 0.02693,-1.5201431 0.04993,-1.7344427 0.215026,-2.00362382 0.398303,-0.64941074 1.07527,-0.81034407 1.617983,-0.38463801 0.411373,0.32268189 0.473329,0.64060043 0.473329,2.42883023 v 1.6616358 h 2.040988 c 1.934591,0 2.05334,0.011633 2.277962,0.2231552 0.650038,0.6121283 0.650038,1.6130597 0,2.2251878 -0.224622,0.2115226 -0.343371,0.2231555 -2.277962,0.2231555 h -2.040988 l -3.58e-4,1.6830439 c -3.58e-4,1.9052891 -0.07457,2.1930001 -0.649767,2.5197621 -0.397217,0.225654 -0.568912,0.224079 -0.950268,-0.0087 z"
     id="path11" />
  <path
     style="fill:#ffffff;stroke-width:0.196011"
     d="M 6.006605,21.167624 C 5.7640655,21.044899 5.4618169,20.62902 5.3479255,20.261307 5.2959431,20.093476 5.2534119,19.276433 5.2534119,18.445658 v -1.510503 h -1.863676 c -2.0890884,0 -2.3519368,-0.06647 -2.65321089,-0.670958 C 0.39962246,15.588225 0.54081178,14.809249 1.0809395,14.363981 1.3702928,14.125445 1.448203,14.116834 3.317075,14.116834 h 1.9363369 l 0.00194,-1.544658 C 5.2569741,11.28968 5.2858586,10.95055 5.425606,10.57402 5.6239295,10.03966 5.9744014,9.7809538 6.499979,9.7809538 c 0.310801,0 0.4237392,0.066642 0.7132879,0.4208342 l 0.3440191,0.420837 v 1.747104 1.747105 l 11.497273,4.02e-4 c 11.37549,4e-4 11.500378,0.0028 11.790588,0.219167 0.300893,0.224412 0.548486,0.772829 0.548486,1.214898 0,0.40272 -0.300691,0.972529 -0.625741,1.185781 -0.287934,0.188906 -0.832066,0.198073 -11.756258,0.198073 H 7.5572967 l -3.278e-4,1.653055 c -2.925e-4,1.448292 -0.021758,1.696041 -0.1733033,2.000082 -0.286992,0.575782 -0.8860141,0.827791 -1.3770571,0.579332 z"
     id="path13" />
  <path
     style="fill:#ffffff;stroke-width:0.190208"
     d="m 20.308737,31.218434 c -0.312424,-0.10311 -0.482369,-0.250719 -0.685993,-0.595838 -0.125731,-0.213092 -0.149952,-0.51588 -0.149952,-1.874498 V 27.127743 L 10.31463,27.100646 1.1564688,27.07355 0.8552652,26.689599 C 0.61564258,26.38414 0.55406154,26.220227 0.55406154,25.887868 c 0,-0.513494 0.17629595,-0.931469 0.50146846,-1.188918 0.2375753,-0.188095 0.5747619,-0.196142 9.331872,-0.222714 l 9.08539,-0.02757 3.53e-4,-1.565669 c 2.63e-4,-1.371512 0.02162,-1.606476 0.172098,-1.894743 0.325513,-0.623626 0.95566,-0.814622 1.47268,-0.44637 0.536631,0.382222 0.595428,0.600413 0.630143,2.338429 l 0.03138,1.572097 h 4.173144 c 3.338788,0 4.229756,0.02817 4.4563,0.140936 0.897615,0.446779 1.017336,1.757199 0.212886,2.330173 -0.26919,0.191735 -0.471966,0.200667 -4.563524,0.201034 l -4.281814,3.84e-4 -0.03109,1.567542 c -0.02473,1.247138 -0.06251,1.635199 -0.184795,1.898558 -0.235241,0.50657 -0.78424,0.781726 -1.251823,0.627407 z"
     id="path15" />
</svg>
