<?xml version="1.0" encoding="UTF-8" standalone="no"?>
<svg
   xmlns:dc="http://purl.org/dc/elements/1.1/"
   xmlns:cc="http://creativecommons.org/ns#"
   xmlns:rdf="http://www.w3.org/1999/02/22-rdf-syntax-ns#"
   xmlns:svg="http://www.w3.org/2000/svg"
   xmlns="http://www.w3.org/2000/svg"
   xmlns:sodipodi="http://sodipodi.sourceforge.net/DTD/sodipodi-0.dtd"
   xmlns:inkscape="http://www.inkscape.org/namespaces/inkscape"
   viewBox="0 0 24 24"
   version="1.1"
   id="svg37"
   sodipodi:docname="realexit_icon.svg"
   inkscape:version="1.0.1 (3bc2e813f5, 2020-09-07)">
  <metadata
     id="metadata43">
    <rdf:RDF>
      <cc:Work
         rdf:about="">
        <dc:format>image/svg+xml</dc:format>
        <dc:type
           rdf:resource="http://purl.org/dc/dcmitype/StillImage" />
        <dc:title></dc:title>
      </cc:Work>
    </rdf:RDF>
  </metadata>
  <defs
     id="defs41" />
  <sodipodi:namedview
     pagecolor="#ffffff"
     bordercolor="#666666"
     borderopacity="1"
     objecttolerance="10"
     gridtolerance="10"
     guidetolerance="10"
     inkscape:pageopacity="0"
     inkscape:pageshadow="2"
     inkscape:window-width="1248"
     inkscape:window-height="706"
     id="namedview39"
     showgrid="false"
     inkscape:zoom="21.875"
     inkscape:cx="12.170928"
     inkscape:cy="12"
     inkscape:window-x="0"
     inkscape:window-y="0"
     inkscape:window-maximized="0"
     inkscape:current-layer="svg37" />
  <path
     d="m -12.339538,11.26898 a 1.1885714,1.1645714 0 0 0 -1.188571,-1.164571 h -9.021257 l 2.733714,-2.6668684 a 1.1885714,1.1645714 0 0 0 0,-1.653691 1.1885714,1.1645714 0 0 0 -1.687771,0 l -4.754287,4.6582854 a 1.1885714,1.1645714 0 0 0 -0.2496,0.384308 1.1885714,1.1645714 0 0 0 0,0.885074 1.1885714,1.1645714 0 0 0 0.2496,0.384309 l 4.754287,4.658286 a 1.1934346,1.1693364 0 1 0 1.687771,-1.653691 l -2.733714,-2.666869 h 9.021257 a 1.1885714,1.1645714 0 0 0 1.188571,-1.164572 z m -15.451429,11.645715 h 11.885715 a 3.5657142,3.4937143 0 0 0 3.565714,-3.493714 v -3.493715 a 1.1885715,1.1645715 0 0 0 -2.377143,0 v 3.493715 a 1.1885714,1.1645714 0 0 1 -1.188571,1.164571 h -11.885715 a 1.1885714,1.1645714 0 0 1 -1.188572,-1.164571 V 3.1169806 a 1.1885714,1.1645714 0 0 1 1.188572,-1.164571 h 11.885715 a 1.1885714,1.1645714 0 0 1 1.188571,1.164571 v 3.493715 a 1.1885715,1.1645715 0 0 0 2.377143,0 v -3.493715 a 3.5657142,3.4937143 0 0 0 -3.565714,-3.49371402 H -27.790967 A 3.5657142,3.4937143 0 0 0 -31.356681,3.1169806 V 19.420981 a 3.5657142,3.4937143 0 0 0 3.565714,3.493714 z"
     id="path35"
     style="stroke-width:1.17651" />
  <path
     style="fill:#666666;stroke-width:0.0415472"
     d="m 73.677205,1.2606739 c 1.174327,0.282156 2.092923,1.3741439 2.323589,2.7621829 0.05153,0.310051 0.05914,0.67534 0.05001,2.4 -0.01011,1.905329 -0.0154,2.045598 -0.0839,2.212727 -0.158961,0.387871 -0.455816,0.624889 -0.824809,0.658551 -0.188161,0.01717 -0.251915,-1.37e-4 -0.462278,-0.125523 -0.233573,-0.13921 -0.38108,-0.32469 -0.4931,-0.62004 -0.01907,-0.05029 -0.04317,-1.017143 -0.05356,-2.148572 -0.01759,-1.91647 -0.02388,-2.069345 -0.09201,-2.235584 -0.09324,-0.227529 -0.271217,-0.442987 -0.459155,-0.555879 -0.143265,-0.08606 -0.291183,-0.08892 -5.282742,-0.102044 -3.796801,-0.01 -5.174493,2.29e-4 -5.285522,0.03923 -0.239353,0.08405 -0.446317,0.285183 -0.568691,0.552653 l -0.111855,0.24448 v 8.4799992 c 0,8.295767 0.0016,8.483877 0.07313,8.658442 0.09325,0.22753 0.271214,0.442988 0.459152,0.55588 0.143266,0.08606 0.291183,0.08892 5.282742,0.102044 3.796802,0.01 5.174493,-2.4e-4 5.285522,-0.03923 0.239353,-0.08405 0.446318,-0.285183 0.568691,-0.552653 l 0.111855,-0.24448 0.01888,-2.057143 c 0.01745,-1.901353 0.02431,-2.070369 0.09052,-2.231792 0.159078,-0.387785 0.527374,-0.669809 0.875763,-0.670619 0.270072,-6.26e-4 0.621384,0.216077 0.765006,0.47189 0.192639,0.343119 0.194464,0.36642 0.194464,2.484984 0,2.166325 -0.01674,2.391322 -0.22226,2.986404 -0.191636,0.554901 -0.600174,1.171128 -0.992315,1.496779 -0.246431,0.204648 -0.586723,0.401319 -0.901312,0.520913 l -0.281869,0.107155 h -5.437419 -5.437429 l -0.281868,-0.107155 c -1.088528,-0.413814 -1.839484,-1.388221 -2.056217,-2.66806 -0.05312,-0.3137 -0.05967,-1.280643 -0.05967,-8.813357 0,-9.2795572 -0.01158,-8.7866332 0.222258,-9.4637232 0.191638,-0.554901 0.600176,-1.171128 0.992317,-1.4967789 0.231951,-0.192623 0.573368,-0.394103 0.881101,-0.519963 l 0.26432,-0.108105 5.380788,-0.0069 c 2.964206,-0.0038 5.455828,0.01115 5.54787,0.03327 z"
     id="path45" />
  <path
     style="fill:#666666;stroke-width:0.0457143"
     d="m 18.342909,6.130919 c 0.09434,0.03367 0.238337,0.112553 0.32,0.175306 0.08166,0.062752 1.241907,1.185961 2.578318,2.496021 1.808709,1.773045 2.455516,2.434968 2.530286,2.589422 0.135996,0.280931 0.136054,0.678436 1.39e-4,0.959198 -0.07469,0.154286 -0.738462,0.832773 -2.598857,2.656464 -1.403188,1.375504 -2.576262,2.489289 -2.675812,2.540573 -0.393322,0.202623 -0.922763,0.142099 -1.271489,-0.145351 -0.354137,-0.291909 -0.506062,-0.890849 -0.333676,-1.315467 0.0478,-0.117753 0.521728,-0.615243 1.542856,-1.619578 l 1.473857,-1.449618 -4.262857,-0.0018 -4.262857,-0.0018 v -1.142857 -1.142857 l 4.262857,-0.0019 4.262857,-0.0019 -1.471826,-1.449527 C 17.376521,8.231125 16.945014,7.776214 16.893849,7.64871 c -0.03907,-0.09736 -0.07103,-0.293889 -0.07103,-0.436739 0,-0.775467 0.794016,-1.340138 1.520092,-1.081027 z"
     id="path61" />
  <path
     style="fill:#ffffff;stroke-width:0.0418582"
     d="M 2.2503311,23.271619 C 1.5484956,22.927405 1.0264887,22.302907 0.74444964,21.47007 0.50002631,20.74831 0.51802156,21.517288 0.51802156,11.794286 c 0,-8.336014 0.003785,-8.8392537 0.0685924,-9.1200003 C 0.74140879,2.0037125 1.1565097,1.2056337 1.5371563,0.8467595 1.6427886,0.74716923 1.8858597,0.5721562 2.0773144,0.45784165 l 0.3480994,-0.20784463 4.6229302,0.0121443 4.62293,0.0121443 0.249128,0.12635824 c 0.554146,0.2810649 1.027011,0.84075314 1.32228,1.56507034 0.304775,0.7476309 0.299703,0.6985241 0.316355,3.0628571 0.0081,1.1565715 0.0038,2.2107237 -0.0098,2.34256 -0.04859,0.4738533 -0.388232,0.8779397 -0.739287,0.8795452 -0.307487,0.00141 -0.652006,-0.3186071 -0.737415,-0.6849623 -0.02052,-0.088 -0.0512,-1.096 -0.06819,-2.24 C 11.974858,3.3374063 11.969939,3.2376534 11.892796,3.0628571 11.800549,2.8538384 11.693376,2.7086493 11.546697,2.5939957 11.451514,2.5195943 11.157444,2.5133771 7.131192,2.5006433 4.7587499,2.49314 2.7600592,2.4995615 2.6896567,2.5149133 2.5137968,2.5532608 2.2498623,2.8561805 2.1492464,3.1351464 l -0.083024,0.2301909 0.01161,8.5116177 0.01161,8.511616 0.082878,0.182858 c 0.045583,0.100571 0.1447777,0.253776 0.2204329,0.340454 0.1115834,0.127842 0.1791557,0.163797 0.3578864,0.190429 0.369833,0.05511 8.5742043,0.04759 8.6977573,-0.008 0.153715,-0.06912 0.349527,-0.306147 0.450872,-0.545768 0.08549,-0.202121 0.08741,-0.24186 0.110168,-2.275367 0.022,-1.965671 0.02718,-2.08048 0.103081,-2.285145 0.09746,-0.2628 0.203829,-0.403828 0.390848,-0.518222 0.327455,-0.200294 0.724644,-0.03039 0.937189,0.400901 l 0.108758,0.220691 v 2.285714 c 0,2.545033 9.23e-4,2.533654 -0.270363,3.2188 -0.301801,0.762122 -0.661821,1.207346 -1.262461,1.561246 l -0.383004,0.225668 -4.5803845,-0.0011 -4.5803847,-0.0011 z"
     id="path63" />
  <path
     style="fill:#ffffff;stroke-width:0.0457143"
     d="m 17.472729,17.513044 c -0.379801,-0.176845 -0.611793,-0.558223 -0.611793,-1.005743 0,-0.137456 0.02197,-0.307831 0.04882,-0.378611 0.02685,-0.07078 0.720432,-0.802404 1.541293,-1.625833 l 1.492474,-1.497143 H 15.68223 11.420938 v -1.12 -1.12 h 4.251428 c 2.338286,0 4.251429,-0.01451 4.251429,-0.03225 0,-0.01774 -0.654111,-0.681165 -1.45358,-1.474286 -0.870888,-0.863973 -1.484788,-1.5089474 -1.531429,-1.6089479 -0.04511,-0.09671 -0.07785,-0.2780996 -0.07785,-0.4312812 0,-0.8216828 0.884777,-1.3706704 1.596151,-0.9903815 0.165016,0.088215 0.857269,0.7325169 2.320755,2.16 2.399716,2.3406816 2.956328,2.9258746 3.027797,3.1832676 0.0631,0.227238 0.06235,0.394534 -0.0028,0.628572 -0.04479,0.160891 -0.308203,0.443225 -1.817632,1.94816 -2.148587,2.142192 -3.399873,3.32803 -3.599892,3.411604 -0.238169,0.09951 -0.6425,0.07863 -0.912593,-0.04713 z"
     id="path65" />
</svg>
